<svg width="40" height="40" viewBox="0 0 40 40" fill="none" xmlns="http://www.w3.org/2000/svg">
<g clip-path="url(#clip0_84_162)">
<path d="M8.125 18.1249C6.86874 18.1249 5.67501 17.8811 4.58752 17.4312C4.45 18.2686 4.375 19.1249 4.375 19.9999C4.375 21.7499 4.66873 23.4312 5.2 24.9999H13.5188C13.2625 23.3811 13.125 21.7061 13.125 19.9999C13.125 18.8374 13.1875 17.6811 13.3125 16.5562C11.825 17.5499 10.0438 18.1249 8.125 18.1249Z" fill="#120667"/>
<path d="M25.2875 24.5875C25.5125 23.1 25.625 21.5688 25.625 20C25.625 18.2875 25.4875 16.6125 25.225 15H15.1062C14.9812 15.1437 14.85 15.2813 14.7125 15.4125C14.4875 16.9 14.375 18.4312 14.375 20C14.375 21.7125 14.5125 23.3875 14.775 25H24.8938C25.0188 24.8562 25.15 24.7187 25.2875 24.5875Z" fill="#120667"/>
<path d="M17.4998 8.75C17.4998 10.5875 16.9686 12.3063 16.0498 13.75H24.9873C24.2248 10.1062 22.8061 6.86249 20.8561 4.39999C20.5748 4.38126 20.2873 4.375 19.9998 4.375C19.7123 4.375 19.4248 4.38126 19.1436 4.39999C18.4873 5.23125 17.8936 6.14372 17.3623 7.13749C17.4498 7.66251 17.4998 8.2 17.4998 8.75Z" fill="#120667"/>
<path d="M22.5002 31.25C22.5002 29.4125 23.0314 27.6937 23.9502 26.25H15.0127C15.7752 29.8937 17.1939 33.1375 19.1439 35.6C19.4252 35.6187 19.7127 35.625 20.0002 35.625C20.2877 35.625 20.5752 35.6187 20.8564 35.6C21.5127 34.7688 22.1064 33.8562 22.6377 32.8625C22.5502 32.3375 22.5002 31.8 22.5002 31.25Z" fill="#120667"/>
<path d="M17.4502 4.5874C17.1689 4.63741 16.8877 4.68742 16.6064 4.74991C16.7127 4.9749 16.8064 5.19993 16.894 5.43743C17.0752 5.14366 17.2564 4.8624 17.4502 4.5874Z" fill="#120667"/>
<path d="M17.4492 35.4134C15.7062 32.882 14.4373 29.7271 13.7403 26.25H5.68359C7.77134 31.0137 12.1669 34.542 17.4492 35.4134Z" fill="#120667"/>
<path d="M31.8752 21.875C33.1315 21.875 34.3252 22.1188 35.4127 22.5687C35.5502 21.7312 35.6252 20.875 35.6252 20C35.6252 18.25 35.3315 16.5688 34.8002 15H26.4814C26.7377 16.6187 26.8752 18.2937 26.8752 20C26.8752 21.1625 26.8127 22.3187 26.6877 23.4438C28.1752 22.45 29.9564 21.875 31.8752 21.875Z" fill="#120667"/>
<path d="M22.5498 35.4125C22.8311 35.3625 23.1123 35.3125 23.3935 35.25C23.2873 35.025 23.1935 34.8 23.106 34.5625C22.9248 34.8562 22.7436 35.1375 22.5498 35.4125Z" fill="#120667"/>
<path d="M34.3164 13.7502C32.2287 8.98667 27.8334 5.45846 22.5513 4.58691C24.2941 7.11831 25.5629 10.2731 26.2597 13.7502H34.3164Z" fill="#120667"/>
<path d="M8.125 16.875C12.6062 16.875 16.25 13.2312 16.25 8.75C16.25 4.26872 12.6062 0.625 8.125 0.625C3.64376 0.625 0 4.26872 0 8.75C0 13.2312 3.64376 16.875 8.125 16.875ZM4.375 8.125H5.05627C5.35 6.34998 6.89377 5 8.75 5H10.625C10.9687 5 11.25 5.28126 11.25 5.625C11.25 5.96874 10.9687 6.25 10.625 6.25H8.75C7.58751 6.25 6.60625 7.04372 6.33125 8.125H9.375C9.71874 8.125 10 8.40626 10 8.75C10 9.09374 9.71874 9.375 9.375 9.375H6.33125C6.60625 10.4562 7.58751 11.25 8.75 11.25H10.625C10.9687 11.25 11.25 11.5313 11.25 11.875C11.25 12.2187 10.9687 12.5 10.625 12.5H8.75C6.89377 12.5 5.35 11.15 5.05627 9.375H4.375C4.03126 9.375 3.75 9.09374 3.75 8.75C3.75 8.40626 4.03126 8.125 4.375 8.125Z" fill="#120667"/>
<path d="M31.875 23.125C27.3938 23.125 23.75 26.7687 23.75 31.25C23.75 35.7312 27.3938 39.375 31.875 39.375C36.3562 39.375 40 35.7312 40 31.25C40 26.7687 36.3562 23.125 31.875 23.125ZM31.5625 30.625H32.1875C33.3937 30.625 34.375 31.6063 34.375 32.8125C34.375 33.9125 33.5563 34.825 32.5 34.975V35.625C32.5 35.9687 32.2187 36.25 31.875 36.25C31.5313 36.25 31.25 35.9687 31.25 35.625V35H30C29.6563 35 29.375 34.7187 29.375 34.375C29.375 34.0313 29.6563 33.75 30 33.75H32.1875C32.7063 33.75 33.125 33.3312 33.125 32.8125C33.125 32.2937 32.7063 31.875 32.1875 31.875H31.5625C30.3563 31.875 29.375 30.8937 29.375 29.6875C29.375 28.5875 30.1937 27.675 31.25 27.525V26.875C31.25 26.5313 31.5313 26.25 31.875 26.25C32.2187 26.25 32.5 26.5313 32.5 26.875V27.5H33.75C34.0937 27.5 34.375 27.7813 34.375 28.125C34.375 28.4687 34.0937 28.75 33.75 28.75H31.5625C31.0437 28.75 30.625 29.1687 30.625 29.6875C30.625 30.2062 31.0437 30.625 31.5625 30.625Z" fill="#120667"/>
<path d="M20 1.25C27.2651 1.25 33.7983 5.40928 36.9079 11.9118L35.5109 11.3019C35.1953 11.1639 34.826 11.308 34.6881 11.6248C34.5502 11.9415 34.6945 12.3096 35.011 12.4481L37.8751 13.6981C37.9547 13.7323 38.0399 13.75 38.125 13.75C38.2025 13.75 38.2797 13.7354 38.3533 13.7067C38.5077 13.6462 38.6316 13.5266 38.6978 13.3752L39.9478 10.5109C40.0858 10.1941 39.9414 9.82605 39.6249 9.6875C39.3076 9.54956 38.9404 9.69421 38.8022 10.0104L38.124 11.5645C34.8452 4.51866 27.8204 0 20 0C19.6548 0 19.375 0.279541 19.375 0.625C19.375 0.970459 19.6548 1.25 20 1.25Z" fill="#120667"/>
<path d="M20.0001 38.7499C12.735 38.7499 6.20177 34.5906 3.09222 28.0881L4.48924 28.698C4.80326 28.8354 5.17375 28.6913 5.31199 28.3751C5.44993 28.0584 5.30558 27.6903 4.98912 27.5518L2.12504 26.3018C1.97276 26.2365 1.80125 26.2334 1.64683 26.2932C1.49241 26.3537 1.36851 26.4733 1.30229 26.6247L0.052287 29.489C-0.0856525 29.8058 0.0586957 30.1739 0.375163 30.3124C0.456645 30.3478 0.541179 30.3643 0.624797 30.3643C0.865886 30.3643 1.09538 30.2245 1.19792 29.9895L1.87606 28.4354C5.15494 35.4812 12.1797 39.9999 20.0001 39.9999C20.3453 39.9999 20.6251 39.7204 20.6251 39.3749C20.6251 39.0294 20.3453 38.7499 20.0001 38.7499Z" fill="#120667"/>
</g>
<defs>
<clipPath id="clip0_84_162">
<rect width="40" height="40" fill="white"/>
</clipPath>
</defs>
</svg>
