<svg width="40" height="40" viewBox="0 0 40 40" fill="none" xmlns="http://www.w3.org/2000/svg">
<path d="M32.5 8.5C32 8.33333 31.3333 8.33333 30.8333 8.33333H9.16667C8.33333 8.33333 7.5 8.5 6.66667 8.83333C6 9.16667 5.5 9.66667 5 10.1667V9.16667C5 6.83333 6.83333 5 9.16667 5H28.3333C30.5 5 32.1667 6.5 32.5 8.5Z" fill="#120667"/>
<path d="M29.1667 20C28.1667 20 27.5 20.6667 27.5 21.6667C27.5 22.6667 28.1667 23.3333 29.1667 23.3333H35V20H29.1667ZM29.1667 22.5C28.6667 22.5 28.3333 22.1667 28.3333 21.6667C28.3333 21.1667 28.6667 20.8333 29.1667 20.8333C29.6667 20.8333 30 21.1667 30 21.6667C30 22.1667 29.6667 22.5 29.1667 22.5Z" fill="#120667"/>
<path d="M16.6663 19.1665C15.4997 19.1665 14.6663 19.8332 14.333 20.8332H18.9997C18.6663 19.8332 17.833 19.1665 16.6663 19.1665Z" fill="#120667"/>
<path d="M16.6663 15.8335C13.4997 15.8335 10.833 18.5002 10.833 21.6668C10.833 24.8335 13.4997 27.5002 16.6663 27.5002C19.833 27.5002 22.4997 24.8335 22.4997 21.6668C22.4997 18.5002 19.833 15.8335 16.6663 15.8335ZM19.9997 22.5002H14.333C14.6663 23.5002 15.6663 24.1668 16.6663 24.1668C17.333 24.1668 17.833 24.0002 18.333 23.5002C18.6663 23.1668 19.1663 23.1668 19.4997 23.5002C19.833 23.8335 19.833 24.3335 19.4997 24.6668C18.6663 25.3335 17.833 25.6668 16.6663 25.6668C14.333 25.6668 12.4997 23.8335 12.4997 21.5002C12.4997 19.1668 14.333 17.3335 16.6663 17.3335C18.9997 17.3335 20.833 19.1668 20.833 21.5002C20.833 22.1668 20.4997 22.5002 19.9997 22.5002Z" fill="#120667"/>
<path d="M29.1667 18.3333H35V14.1667C35 11.8333 33.1667 10 30.8333 10H9.16667C6.83333 10 5 11.8333 5 14.1667V29.1667C5 31.5 6.83333 33.3333 9.16667 33.3333H30.8333C33.1667 33.3333 35 31.5 35 29.1667V25H29.1667C27.3333 25 25.8333 23.5 25.8333 21.6667C25.8333 19.8333 27.3333 18.3333 29.1667 18.3333ZM16.6667 29.1667C12.5 29.1667 9.16667 25.8333 9.16667 21.6667C9.16667 17.5 12.5 14.1667 16.6667 14.1667C20.8333 14.1667 24.1667 17.5 24.1667 21.6667C24.1667 25.8333 20.8333 29.1667 16.6667 29.1667Z" fill="#120667"/>
</svg>
