<svg xmlns="http://www.w3.org/2000/svg" width="40" height="40" viewBox="0 0 40 40" fill="none">
<path d="M14.2861 12.8569C15.0718 12.8569 15.7147 12.2141 15.7147 11.4284V9.99979C15.7147 7.62836 17.629 5.71408 20.0004 5.71408C22.3718 5.71408 24.2861 7.62836 24.2861 9.99979V11.4284C24.2861 12.2141 24.929 12.8569 25.7147 12.8569C26.5004 12.8569 27.1433 12.2141 27.1433 11.4284V9.99979C27.1433 6.05693 23.9433 2.85693 20.0004 2.85693C16.0576 2.85693 12.8576 6.05693 12.8576 9.99979V11.4284C12.8576 12.2141 13.5004 12.8569 14.2861 12.8569ZM20.0004 24.2855C16.0576 24.2855 12.8576 21.0855 12.8576 17.1426C12.8576 16.3569 13.5004 15.7141 14.2861 15.7141C15.0718 15.7141 15.7147 16.3569 15.7147 17.1426C15.7147 19.5141 17.629 21.4284 20.0004 21.4284C22.3718 21.4284 24.2861 19.5141 24.2861 17.1426C24.2861 16.3569 24.929 15.7141 25.7147 15.7141C26.5004 15.7141 27.1433 16.3569 27.1433 17.1426C27.1433 21.0855 23.9433 24.2855 20.0004 24.2855ZM35.7147 28.4284L34.2861 14.2855C34.2861 11.9141 32.3718 9.99979 30.0004 9.99979H10.0004C7.68613 9.9855 5.78613 11.8284 5.7147 14.1426L4.28613 28.5712C4.28613 33.2998 8.12899 37.1426 12.8576 37.1426H27.1433C31.9004 37.1284 35.729 33.2569 35.7147 28.4998C35.7147 28.4855 35.7147 28.4569 35.7147 28.4284Z" fill="#ffffff"/>
</svg>