<svg xmlns="http://www.w3.org/2000/svg" width="40" height="40" viewBox="0 0 40 40" fill="none">
<g clip-path="url(#clip0_84_158)">
<path d="M9.33063 0C4.18457 0 0 4.17723 0 9.31638C0 10.7275 0.430332 12.1512 1.07808 13.5286C0.366332 15.6111 0 17.7978 0 19.9999C0 31.0377 8.96213 39.9998 19.9998 39.9998C31.0375 39.9998 39.9997 31.0376 39.9997 19.9999C39.9997 17.9459 39.6723 15.9182 39.057 13.9791V13.9778C39.053 13.8621 39.0188 13.7495 38.9581 13.651C38.5402 12.4082 38.0006 11.2049 37.3435 10.0586C38.6335 8.5053 40.0257 6.41697 39.9997 4.6654C39.9997 2.09599 37.9038 8.3333e-05 35.3344 8.3333e-05C33.2624 8.3333e-05 31.497 1.36449 30.8905 3.23965C27.6532 1.13608 23.8761 0 19.9998 0C17.8288 0 15.6742 0.358665 13.6184 1.05075C12.3327 0.383915 10.8767 0 9.33063 0ZM9.33063 1.33466C13.7574 1.33466 17.3332 4.89906 17.3332 9.31638C17.3332 11.9777 15.2811 15.258 13.1549 17.8007C11.2449 20.0847 9.70496 21.396 9.33588 21.7173C8.96855 21.3976 7.42289 20.0862 5.51173 17.8007C3.38549 15.2579 1.33466 11.9777 1.33466 9.31638C1.33466 4.89906 4.9039 1.33466 9.33063 1.33466ZM19.9998 1.33466C23.8204 1.33466 27.5376 2.51441 30.6664 4.69531C30.668 4.90806 30.6888 5.12181 30.7237 5.33464H28.0024C26.5366 5.33464 25.3345 6.53681 25.3345 8.00263C25.3345 9.46846 26.5366 10.664 28.0024 10.664H29.3305C30.0806 10.664 30.6638 11.2485 30.6638 11.9987C30.6638 13.4645 31.866 14.6654 33.3318 14.6654H37.8734C38.3906 16.3888 38.6664 18.1829 38.6664 20C38.6664 22.351 38.2288 24.5981 37.4373 26.6692H33.0167C33.6122 25.3528 34.001 23.9963 34.001 22.6523C34.001 17.5132 29.8113 13.332 24.6651 13.332C19.519 13.332 15.3345 17.5132 15.3345 22.6523C15.3345 23.9963 15.7234 25.3529 16.3188 26.6692H15.9985C14.902 26.6692 14.0011 27.5701 14.0011 28.6666C14.0011 29.0475 13.7127 29.3307 13.3319 29.3307H11.9985C10.902 29.3307 9.99987 30.2381 9.99987 31.3346C9.99987 32.4311 10.9021 33.332 11.9985 33.332H12.6678C13.0486 33.332 13.3319 33.6204 13.3319 34.0013C13.3319 34.3821 13.0487 34.6654 12.6678 34.6654H8.45296C6.79864 33.3614 5.37156 31.7841 4.23815 30C6.37706 30.152 7.33797 28.5538 7.33314 27.3334C7.33314 26.5832 7.91622 25.9987 8.66646 25.9987H9.99979C11.4655 25.9987 12.6677 24.7979 12.6677 23.3321C12.6677 22.524 12.3012 21.8021 11.7289 21.3126C12.4663 20.575 13.3032 19.7026 14.1781 18.6563C16.3852 16.017 18.6663 12.6233 18.6663 9.31654C18.6663 6.34547 17.2614 3.70165 15.0856 1.99499C16.6853 1.55849 18.3378 1.33466 19.9998 1.33466ZM35.3344 1.33466C37.1832 1.33466 38.6663 2.81657 38.6663 4.6654C38.6663 5.66539 37.7698 7.30705 36.8018 8.59763C36.0695 9.57396 35.6481 9.98121 35.3344 10.3099C35.0211 9.98188 34.6013 9.57504 33.8682 8.59763C32.9002 7.30697 31.9984 5.66531 31.9984 4.6654C31.9984 2.81649 33.4855 1.33466 35.3344 1.33466ZM9.33063 2.66799C5.65664 2.66799 2.66791 5.65673 2.66791 9.33071C2.66791 13.0047 5.65664 15.9987 9.33063 15.9987C13.0046 15.9987 15.9985 13.0047 15.9985 9.33071C15.9985 5.65673 13.0046 2.66799 9.33063 2.66799ZM35.3344 2.66799C34.2377 2.66799 33.3318 3.56874 33.3318 4.6654C33.3318 5.76206 34.2377 6.66931 35.3344 6.66931C36.431 6.66931 37.333 5.76206 37.333 4.6654C37.333 3.56874 36.431 2.66799 35.3344 2.66799ZM9.33063 4.00132C12.284 4.00132 14.6652 6.37731 14.6652 9.33071C14.6652 12.2841 12.2839 14.6654 9.33063 14.6654C6.37731 14.6654 4.00123 12.2841 4.00123 9.33071C4.00123 6.37731 6.37722 4.00132 9.33063 4.00132ZM35.3344 4.00132C35.7104 4.00132 35.9984 4.28932 35.9984 4.6654C35.9984 5.04148 35.7104 5.33464 35.3344 5.33464C34.9583 5.33464 34.6651 5.04148 34.6651 4.6654C34.6651 4.28923 34.9583 4.00132 35.3344 4.00132ZM6.66922 5.99864C5.74406 6.00673 5.78148 7.4223 6.76689 7.3333L7.34239 10.7773C7.39605 11.0998 7.67563 11.3358 8.00255 11.3346H10.664C10.9718 11.3356 11.2403 11.1258 11.3137 10.8268L11.979 8.16013C12.0828 7.7408 11.7665 7.33505 11.3345 7.3333H8.11972L7.99213 6.55597C7.93855 6.23397 7.65972 5.99814 7.3333 5.99864H6.66922ZM28.0024 6.66922H31.1313C31.7214 8.14213 33.4299 10.3305 34.8617 11.806C35.1218 12.0644 35.5418 12.0644 35.8018 11.806C35.8018 11.806 36.0593 11.545 36.4215 11.1445C36.8037 11.8529 37.1357 12.5845 37.4228 13.3319H33.3317C32.5815 13.3319 31.9984 12.7488 31.9984 11.9986C31.9984 10.5328 30.7962 9.33063 29.3304 9.33063H28.0024C27.2522 9.33063 26.6691 8.75271 26.6691 8.00247C26.6691 7.25239 27.2521 6.66922 28.0024 6.66922ZM8.34238 8.66663H10.4778L10.1484 9.99996H8.56371L8.34238 8.66663ZM7.99997 11.9999C7.6358 11.9999 7.3333 12.3024 7.3333 12.6666C7.3333 13.0308 7.6358 13.3333 7.99997 13.3333C8.36413 13.3333 8.66663 13.0308 8.66663 12.6666C8.66663 12.3024 8.36405 11.9999 7.99997 11.9999ZM10.6665 11.9999C10.3024 11.9999 9.99987 12.3024 9.99987 12.6666C9.99987 13.0308 10.3024 13.3333 10.6665 13.3333C11.0307 13.3333 11.3332 13.0308 11.3332 12.6666C11.3332 12.3024 11.0307 11.9999 10.6665 11.9999ZM24.6651 14.6653C29.0919 14.6653 32.6677 18.2349 32.6677 22.6522C32.6677 25.3136 30.6156 28.5939 28.4894 31.1365C26.5794 33.4206 25.0342 34.7279 24.6652 35.0493C24.296 34.7278 22.7561 33.4204 20.8462 31.1365C18.72 28.5938 16.6692 25.3136 16.6692 22.6522C16.6691 18.2349 20.2384 14.6653 24.6651 14.6653ZM1.96483 15.1835C3.22707 17.2273 4.68415 18.9846 6.29556 20.664H1.35549C1.26491 18.8742 1.50683 16.8662 1.96483 15.1835ZM24.6651 15.9986C20.9912 15.9986 18.0024 18.9938 18.0024 22.6678C18.0024 26.3418 20.9912 29.3305 24.6651 29.3305C28.3391 29.3305 31.3344 26.3418 31.3344 22.6678C31.3344 18.9938 28.3391 15.9986 24.6651 15.9986ZM24.6651 17.3333C27.6186 17.3333 29.9997 19.7145 29.9997 22.6679C29.9997 25.6213 27.6186 28.0025 24.6651 28.0025C21.7117 28.0025 19.3306 25.6213 19.3306 22.6679C19.3306 19.7145 21.7117 17.3333 24.6651 17.3333ZM24.6561 18.6666C24.2894 18.6729 23.9968 18.9743 24.0012 19.3411C22.9057 19.3411 21.9986 20.2432 21.9986 21.3385C21.9986 22.4338 22.9034 23.3352 24.0012 23.332V24.6601H22.6678C21.7795 24.6616 21.7795 25.9934 22.6678 25.9948H24.0012C24.0203 26.8643 25.3153 26.8643 25.3345 25.9948C26.4298 25.9948 27.3331 25.0914 27.3331 23.9961C27.3331 22.9008 26.4275 22.002 25.3345 21.9987V20.6745H26.6691C27.578 20.6947 27.578 19.321 26.6691 19.3412H25.3345C25.339 18.9653 25.0319 18.66 24.6561 18.6666ZM23.3318 21.3385C23.3318 20.9607 23.6194 20.6744 24.0012 20.6744L24.0001 21.9987C23.6181 21.9997 23.3318 21.7162 23.3318 21.3385ZM1.44791 21.9986H7.62363C8.3828 22.7264 8.9023 23.1743 8.9023 23.1743C9.15096 23.385 9.51554 23.385 9.76429 23.1743C9.76429 23.1743 10.1908 22.7985 10.776 22.2486C11.113 22.4874 11.3346 22.8769 11.3346 23.3319C11.3346 24.0821 10.7501 24.6652 9.99996 24.6652H8.66655C7.20072 24.6652 5.99864 25.8674 5.99864 27.3332C5.99864 28.0834 5.41556 28.6665 4.66531 28.6665H3.46607C2.38549 26.6042 1.67883 24.2516 1.44791 21.9986ZM25.3345 23.3332C25.7156 23.3372 25.9986 23.6201 25.9986 23.996C25.9986 24.3738 25.7161 24.6601 25.3345 24.6601V23.3332ZM16.9999 28.0025C17.8124 29.4345 18.82 30.794 19.8228 31.9934C22.0299 34.6327 24.233 36.5063 24.233 36.5063C24.4823 36.7193 24.8495 36.7193 25.0989 36.5063C25.0989 36.5063 27.3059 34.6327 29.513 31.9934C30.5158 30.7941 31.5234 29.4345 32.3359 28.0025H36.8697C33.8757 34.3097 27.4521 38.6665 20 38.6665C16.4767 38.6665 13.1838 37.6919 10.3738 35.9985H12.668C13.7645 35.9985 14.6654 35.0976 14.6654 34.0011C14.6654 32.9046 13.7645 31.9985 12.668 31.9985H11.9987C11.6179 31.9985 11.3346 31.7154 11.3346 31.3345C11.3346 30.9536 11.6178 30.6639 11.9987 30.6639H13.332C14.4285 30.6639 15.3346 29.763 15.3346 28.6665C15.3346 28.2855 15.6178 28.0024 15.9987 28.0024H16.9999V28.0025Z" fill="#ffffff"/>
</g>
<defs fill="#000000">
<clipPath id="clip0_84_158" fill="#000000">
<rect width="40" height="40" fill="white"/>
</clipPath>
</defs>
</svg>