<svg width="40" height="40" viewBox="0 0 40 40" fill="none" xmlns="http://www.w3.org/2000/svg">
<path d="M37 23.6V19C37 17.3431 35.6569 16 34 16H6C4.34313 16 3 17.3431 3 19V23.6C3 23.8209 3.17906 24 3.4 24H36.6C36.8209 24 37 23.8209 37 23.6Z" fill="#120667"/>
<path d="M3 26.4V37C3 38.6569 4.34313 40 6 40H34C35.6569 40 37 38.6569 37 37V26.4C37 26.1791 36.8209 26 36.6 26H3.4C3.17906 26 3 26.1791 3 26.4ZM14 34H10C9.44727 34 9 33.5527 9 33C9 32.4473 9.44727 32 10 32H14C14.5527 32 15 32.4473 15 33C15 33.5527 14.5527 34 14 34ZM30 34H26C25.4473 34 25 33.5527 25 33C25 32.4473 25.4473 32 26 32H30C30.5527 32 31 32.4473 31 33C31 33.5527 30.5527 34 30 34Z" fill="#120667"/>
<path d="M26.7003 7.70016L20.8399 13.5605L20.7003 13.7002C20.6203 13.7998 20.5202 13.8603 20.4 13.9198H20.38C20.2599 13.9804 20.1203 13.9999 20.0002 13.9999C19.88 13.9999 19.7404 13.9804 19.6203 13.9198H19.6003C19.4801 13.8602 19.38 13.7997 19.2999 13.7002L19.1603 13.5605L13.2999 7.70016C12.9 7.32023 12.9 6.67961 13.2999 6.29977C13.6803 5.90039 14.3205 5.90039 14.7003 6.29977L19.0001 10.5801V1C19.0002 0.439453 19.4401 0 20.0002 0C20.5603 0 21.0002 0.439453 21.0002 1V10.5801L25.3 6.29977C25.6804 5.90039 26.3206 5.90039 26.7004 6.29977C27.1003 6.67969 27.1003 7.32031 26.7003 7.70016Z" fill="#120667"/>
</svg>
