<svg xmlns="http://www.w3.org/2000/svg" width="40" height="40" viewBox="0 0 40 40" fill="none">
<g clip-path="url(#clip0_84_83)">
<path d="M4.06469 27.6108C2.92273 25.2244 2.34375 22.6638 2.34375 20C2.34375 10.2643 10.2643 2.34375 20 2.34375C23.868 2.34375 27.5455 3.57992 30.5831 5.86398L27.6606 6.24875C27.019 6.3332 26.5673 6.92188 26.6517 7.56352C26.7362 8.20523 27.3248 8.65687 27.9665 8.57242L33.4664 7.84836C34.108 7.76391 34.5598 7.17523 34.4753 6.53359L33.7512 1.03375C33.6667 0.392109 33.0781 -0.0596094 32.4364 0.0248437H32.4363C31.7947 0.109297 31.343 0.697969 31.4274 1.33961L31.7532 3.81406C28.3585 1.33797 24.2823 0 20 0C14.6578 0 9.63539 2.08031 5.85781 5.85781C2.08039 9.63539 0 14.6578 0 20C0 23.0167 0.65625 25.9177 1.95063 28.6225C2.23 29.2063 2.92969 29.4531 3.51352 29.1738C4.09727 28.8944 4.34406 28.1946 4.06469 27.6108Z" fill="#ffffff"/>
<path d="M30.8392 18.2523L31.425 17.9141C31.9855 17.5905 32.1776 16.8738 31.8539 16.3134L29.1196 11.5773C28.796 11.0168 28.0793 10.8247 27.5188 11.1484L26.9329 11.4866C25.5876 12.2634 23.906 11.2924 23.906 9.73898V9.0625C23.906 8.41531 23.3813 7.89062 22.7341 7.89062H17.2654C16.6182 7.89062 16.0935 8.41531 16.0935 9.0625V9.73898C16.0935 11.2924 14.4118 12.2633 13.0665 11.4866L12.4807 11.1484C11.9202 10.8248 11.2035 11.0168 10.8799 11.5773L8.14551 16.3134C7.82192 16.8738 8.01395 17.5905 8.57442 17.9141L9.16027 18.2523C10.5056 19.0291 10.5056 20.9709 9.16027 21.7476L8.57442 22.0858C8.01395 22.4094 7.82184 23.1261 8.14551 23.6866L10.8799 28.4227C11.2035 28.9831 11.9202 29.1752 12.4807 28.8516L13.0665 28.5133C14.4118 27.7366 16.0935 28.7075 16.0935 30.2609V30.9375C16.0935 31.5847 16.6182 32.1094 17.2654 32.1094H22.7341C23.3813 32.1094 23.906 31.5847 23.906 30.9375V30.261C23.906 28.7076 25.5876 27.7367 26.9329 28.5134L27.5188 28.8516C28.0793 29.1752 28.796 28.9832 29.1196 28.4227L31.8539 23.6866C32.1775 23.1262 31.9855 22.4095 31.425 22.0859L30.8392 21.7477C29.4939 20.9709 29.4939 19.0291 30.8392 18.2523ZM19.9997 24.4922C17.5188 24.4922 15.5075 22.4809 15.5075 20C15.5075 17.5191 17.5188 15.5078 19.9997 15.5078C22.4807 15.5078 24.4919 17.5191 24.4919 20C24.4919 22.4809 22.4807 24.4922 19.9997 24.4922Z" fill="#ffffff"/>
<path d="M38.0495 11.3773C37.7701 10.7934 37.0704 10.5466 36.4866 10.826C35.9029 11.1054 35.6561 11.8051 35.9354 12.3889C37.0774 14.7754 37.6564 17.336 37.6564 19.9998C37.6564 29.7355 29.7358 37.656 20.0001 37.656C16.1321 37.656 12.4546 36.4198 9.41699 34.1358L12.3395 33.751C12.9811 33.6666 13.4328 33.0779 13.3484 32.4362C13.2639 31.7945 12.6753 31.3429 12.0336 31.4273L6.53371 32.1514C5.89207 32.2359 5.44035 32.8245 5.5248 33.4662L6.24894 38.966C6.33339 39.6076 6.92207 40.0594 7.56371 39.9749C8.20535 39.8905 8.65714 39.3018 8.57269 38.6601L8.24691 36.1857C11.6416 38.6618 15.7178 39.9998 20.0001 39.9998C25.3423 39.9998 30.3647 37.9194 34.1423 34.1419C37.9197 30.3644 40.0001 25.3419 40.0001 19.9998C40.0001 16.983 39.3439 14.082 38.0495 11.3773Z" fill="#ffffff"/>
</g>
<defs fill="#000000">
<clipPath id="clip0_84_83" fill="#000000">
<rect width="40" height="40" fill="white"/>
</clipPath>
</defs>
</svg>