<svg width="40" height="40" viewBox="0 0 40 40" fill="none" xmlns="http://www.w3.org/2000/svg">
<g clip-path="url(#clip0_84_249)">
<mask id="mask0_84_249" style="mask-type:luminance" maskUnits="userSpaceOnUse" x="0" y="0" width="40" height="40">
<path d="M0 0H40V40H0V0Z" fill="white"/>
</mask>
<g mask="url(#mask0_84_249)">
<path d="M6.66683 19.1665V25.8332C6.66683 27.2165 7.7835 28.3332 9.16683 28.3332C10.5502 28.3332 11.6668 27.2165 11.6668 25.8332V19.1665C11.6668 17.7832 10.5502 16.6665 9.16683 16.6665C7.7835 16.6665 6.66683 17.7832 6.66683 19.1665ZM16.6668 19.1665V25.8332C16.6668 27.2165 17.7835 28.3332 19.1668 28.3332C20.5502 28.3332 21.6668 27.2165 21.6668 25.8332V19.1665C21.6668 17.7832 20.5502 16.6665 19.1668 16.6665C17.7835 16.6665 16.6668 17.7832 16.6668 19.1665ZM5.8335 36.6665H32.5002C33.8835 36.6665 35.0002 35.5499 35.0002 34.1665C35.0002 32.7832 33.8835 31.6665 32.5002 31.6665H5.8335C4.45016 31.6665 3.3335 32.7832 3.3335 34.1665C3.3335 35.5499 4.45016 36.6665 5.8335 36.6665ZM26.6668 19.1665V25.8332C26.6668 27.2165 27.7835 28.3332 29.1668 28.3332C30.5502 28.3332 31.6668 27.2165 31.6668 25.8332V19.1665C31.6668 17.7832 30.5502 16.6665 29.1668 16.6665C27.7835 16.6665 26.6668 17.7832 26.6668 19.1665ZM17.6168 2.4832L4.45016 9.41654C3.76683 9.76654 3.3335 10.4832 3.3335 11.2499C3.3335 12.3999 4.26683 13.3332 5.41683 13.3332H32.9335C34.0668 13.3332 35.0002 12.3999 35.0002 11.2499C35.0002 10.4832 34.5668 9.76654 33.8835 9.41654L20.7168 2.4832C19.7502 1.96654 18.5835 1.96654 17.6168 2.4832Z" fill="#120667"/>
</g>
</g>
<defs>
<clipPath id="clip0_84_249">
<rect width="40" height="40" fill="white"/>
</clipPath>
</defs>
</svg>
