<svg width="40" height="40" viewBox="0 0 40 40" fill="none" xmlns="http://www.w3.org/2000/svg">
<g clip-path="url(#clip0_84_242)">
<path fill-rule="evenodd" clip-rule="evenodd" d="M19.5311 31.8259C15.6363 31.7126 12.0878 30.192 9.3766 27.7566C9.74477 27.1656 10.2164 26.4129 10.3202 26.2781C10.943 25.47 11.7032 24.7717 12.5607 24.1863C12.897 25.2069 13.3008 26.1722 13.7728 27.0591C15.3051 29.934 17.3348 31.6026 19.5312 31.8107L19.5311 31.8259ZM13.3784 23.6783C15.196 22.6528 17.351 22.0789 19.5311 21.9842V30.8755C17.7487 30.6644 15.9952 29.2498 14.601 26.6294C14.1195 25.7242 13.7122 24.7315 13.3784 23.6783ZM20.4688 21.9732C22.654 22.0164 24.8193 22.5447 26.6506 23.5861C26.3115 24.6737 25.8945 25.698 25.3989 26.6294C24.0048 29.2498 22.2512 30.6647 20.4688 30.8755V21.9732ZM27.4671 24.1005C28.3219 24.6959 29.0828 25.4185 29.7108 26.2725C29.7978 26.391 30.2746 27.066 30.7061 27.6835C27.9847 30.1617 24.4032 31.7115 20.4688 31.8259V31.8107C22.6651 31.6026 24.6949 29.934 26.2272 27.0592C26.7123 26.1475 27.1253 25.1528 27.4671 24.1005ZM8.6776 27.0897C5.94168 24.3175 4.21246 20.5498 4.09131 16.3862H11.3147C11.3524 18.7745 11.6789 21.1498 12.294 23.3154C11.2578 23.9614 10.3581 24.74 9.64296 25.6278C9.48324 25.8261 9.06561 26.4718 8.6776 27.0897ZM12.2516 16.3862H14.7079C14.9321 18.944 16.9733 20.9851 19.5311 21.2094V21.2265C17.1971 21.2956 14.9884 21.8704 13.1313 22.8378C12.5805 20.8155 12.2874 18.6069 12.2516 16.3862ZM14.7079 15.4486H12.252C12.2887 13.233 12.5821 11.0302 13.1313 9.01313C14.9889 9.97923 17.1974 10.5528 19.5311 10.6207V10.6253C16.9733 10.8497 14.9322 12.8908 14.7079 15.4486ZM11.3147 15.4486L4.09159 15.4485C4.21265 11.2892 5.93854 7.52623 8.66976 4.75654C9.05787 5.37459 9.47578 6.02078 9.63559 6.21917C10.3515 7.10786 11.2522 7.88712 12.2898 8.53359C11.6775 10.6954 11.3523 13.0655 11.3147 15.4486ZM20.4688 10.6253V10.6207C22.8034 10.5527 25.0125 9.97887 26.8685 9.01211C27.4181 11.0297 27.7112 13.2329 27.748 15.4485H25.292C25.0676 12.8908 23.0266 10.8497 20.4688 10.6253ZM27.7097 8.5321C28.6831 7.92439 29.5348 7.1993 30.2248 6.3764C30.4015 6.16564 30.8955 5.48512 31.3739 4.80488C34.078 7.57042 35.7857 11.3143 35.908 15.4486L28.6852 15.4485C28.6475 13.0649 28.3224 10.6943 27.7097 8.5321ZM25.2921 16.3862H27.7482C27.7127 18.605 27.4198 20.8115 26.8702 22.8319C25.0135 21.8659 22.8037 21.2929 20.4688 21.226V21.2094C23.0267 20.9851 25.0679 18.944 25.2921 16.3862ZM28.6852 16.3862H35.9089C35.7905 20.5214 34.0826 24.2676 31.3765 27.0352C30.8996 26.3573 30.4083 25.6806 30.2322 25.4705C29.54 24.6451 28.6851 23.9179 27.7078 23.3091C28.3217 21.1453 28.6474 18.7721 28.6852 16.3862ZM9.36886 4.08976C12.081 1.65188 15.6325 0.129914 19.5312 0.0166016V0.0213998C17.4241 0.225971 15.3511 1.81031 13.7728 4.77572C13.2987 5.66663 12.8934 6.6367 12.5562 7.6626C11.6975 7.07676 10.9363 6.37788 10.3129 5.56881C10.209 5.43409 9.73703 4.68086 9.36886 4.08976ZM19.5312 0.9745V9.86317C17.3514 9.76961 15.1964 9.19695 13.3783 8.1728C13.7119 7.11913 14.1195 6.12617 14.6011 5.22096C15.9556 2.67762 17.6888 1.1907 19.5312 0.9745ZM20.4689 0.0166016C24.4019 0.131113 27.9816 1.68058 30.7026 4.15804C30.2701 4.77692 29.7908 5.45559 29.7035 5.57445C29.0778 6.4254 28.3202 7.14596 27.469 7.74012C27.1269 6.68561 26.7134 5.68905 26.2273 4.77573C24.649 1.81032 22.5761 0.225883 20.4689 0.0214063L20.4689 0.0166016ZM26.6488 8.25777C24.8184 9.30001 22.6537 9.82929 20.4689 9.87358V0.974516C22.3113 1.19071 24.0445 2.67762 25.399 5.22096C25.8937 6.15071 26.3103 7.17254 26.6488 8.25777Z" fill="#120667"/>
<path fill-rule="evenodd" clip-rule="evenodd" d="M20 20.4492C17.4998 20.4492 15.4683 18.4178 15.4683 15.9175C15.4683 13.4173 17.4998 11.3857 20 11.3857C22.5003 11.3857 24.5318 13.4172 24.5318 15.9175C24.5318 18.4178 22.5003 20.4492 20 20.4492ZM19.535 18.5132C18.3853 18.1587 18.0737 16.5503 18.9062 16.5503C19.6552 16.5503 19.0977 17.6442 20.0001 17.6442C20.8224 17.6442 20.8225 16.394 20.0001 16.394C18.112 16.394 17.9581 13.7662 19.531 13.33L19.5312 13.3C19.5312 12.6833 20.4689 12.6832 20.4689 13.3L20.4692 13.3387C21.6156 13.6957 21.9254 15.3002 21.0939 15.3002C20.3449 15.3002 20.9025 14.2063 20 14.2063C19.1778 14.2063 19.1777 15.4565 20 15.4565C21.8887 15.4565 22.0434 18.0894 20.4647 18.5217C20.4404 18.7713 20.3443 19.0037 20 19.0037C19.6542 19.0037 19.5587 18.7647 19.535 18.5132Z" fill="#120667"/>
<path fill-rule="evenodd" clip-rule="evenodd" d="M20.0001 34.8492C19.7423 34.8492 19.5312 34.6383 19.5312 34.3804V31.3644C19.5312 30.7477 20.4689 30.7476 20.4689 31.3644V34.3805C20.4689 34.6383 20.2579 34.8492 20.0001 34.8492Z" fill="#120667"/>
<path fill-rule="evenodd" clip-rule="evenodd" d="M34.2202 37.4274H22.5784C21.9618 37.4274 21.9617 36.4897 22.5784 36.4897L34.2202 36.4898C34.8369 36.4898 34.8372 37.4274 34.2202 37.4274ZM17.4218 37.4274H5.77999C5.16323 37.4274 5.16314 36.4897 5.77999 36.4897L17.4218 36.4898C18.0384 36.4898 18.0385 37.4274 17.4218 37.4274Z" fill="#120667"/>
<path fill-rule="evenodd" clip-rule="evenodd" d="M3.20134 39.998C3.07641 39.998 2.95922 39.9512 2.87322 39.8574L0.294899 37.2791C0.115242 37.0994 0.115242 36.8024 0.294899 36.6149L2.87322 34.0366C3.05509 33.8547 3.34585 33.8447 3.52947 34.0366L6.10788 36.6149C6.28966 36.7968 6.29972 37.0874 6.10788 37.2712L3.52947 39.8495C3.44366 39.9512 3.32638 39.998 3.20134 39.998ZM36.7986 39.998C36.6736 39.998 36.5564 39.9512 36.4705 39.8574L33.8921 37.2791C33.7124 37.0994 33.7124 36.8024 33.8921 36.6149L36.4705 34.0366C36.6513 33.8556 36.9411 33.8427 37.1267 34.0366L39.7051 36.6149C39.8847 36.7946 39.8847 37.0916 39.7051 37.2791L37.1267 39.8574C37.0407 39.9512 36.9235 39.998 36.7986 39.998ZM19.9999 39.998C19.8749 39.998 19.7577 39.9512 19.6718 39.8574L17.0935 37.2791C16.9137 37.0994 16.9137 36.8024 17.0935 36.6149L19.6718 34.0366C19.8527 33.8556 20.1424 33.8427 20.3281 34.0366L22.9064 36.6149C23.0883 36.7968 23.0983 37.0874 22.9064 37.2712L20.3281 39.8495C20.2422 39.9512 20.125 39.998 19.9999 39.998Z" fill="#120667"/>
</g>
<defs>
<clipPath id="clip0_84_242">
<rect width="40" height="40" fill="white"/>
</clipPath>
</defs>
</svg>
