<svg xmlns="http://www.w3.org/2000/svg" width="40" height="40" viewBox="0 0 40 40" fill="none">
<g clip-path="url(#clip0_85_2)">
<path d="M14.0894 14.792C7.12617 14.792 1.48535 20.4328 1.48535 27.3961C1.48535 34.3593 7.12617 40.0002 14.0894 40.0002C21.0527 40.0002 26.6935 34.3593 26.6935 27.3961C26.6935 20.4328 21.0445 14.792 14.0894 14.792ZM15.118 33.4124V34.1226C15.118 34.694 14.6609 35.1512 14.0894 35.1512C13.518 35.1512 13.0609 34.694 13.0609 34.1226V33.4042C12.4568 33.2246 11.9098 32.89 11.469 32.4246C11.0772 32.0083 11.1017 31.3634 11.5098 30.9716C11.9262 30.5797 12.5711 30.6042 12.9629 31.0124C13.2568 31.3226 13.6568 31.494 14.0813 31.494C14.9302 31.494 15.6241 30.8002 15.6241 29.9512C15.6241 29.1022 14.9302 28.4083 14.0813 28.4083C12.0976 28.4083 10.4813 26.792 10.4813 24.8083C10.4813 23.1838 11.567 21.8042 13.0527 21.3634V20.6532C13.0527 20.0818 13.5098 19.6246 14.0813 19.6246C14.6527 19.6246 15.1098 20.0818 15.1098 20.6532V21.3716C15.7139 21.5512 16.2609 21.8859 16.7017 22.3512C17.0935 22.7675 17.069 23.4124 16.6609 23.8042C16.2445 24.1961 15.5996 24.1716 15.2078 23.7634C14.9139 23.4532 14.5139 23.2818 14.0894 23.2818C13.2405 23.2818 12.5466 23.9757 12.5466 24.8246C12.5466 25.6736 13.2405 26.3675 14.0894 26.3675C16.0731 26.3675 17.6894 27.9838 17.6894 29.9675C17.6813 31.592 16.5956 32.9716 15.118 33.4124Z" fill="#ef793c"/>
<path d="M9.99149 0C4.93843 0 0.848633 4.0898 0.848633 9.14286C0.848633 12.2449 2.39149 14.9796 4.75067 16.6367C7.24863 14.4653 10.5139 13.151 14.0894 13.151C14.4486 13.151 14.8078 13.1673 15.1588 13.1918C15.2323 10.1306 16.3752 7.33061 18.2282 5.16735C16.7425 2.10612 13.616 0 9.99149 0ZM11.6894 7.36326C12.0568 7.36326 12.3588 7.66531 12.3588 8.03265C12.3588 8.4 12.0568 8.70204 11.6894 8.70204H10.2037V9.36326H11.6894C12.0568 9.36326 12.3588 9.66531 12.3588 10.0327C12.3588 10.4 12.0568 10.702 11.6894 10.702H10.2037V11.5184C10.2037 11.8857 9.90169 12.1878 9.53435 12.1878C9.167 12.1878 8.86496 11.8857 8.86496 11.5184V10.702H7.37924C7.0119 10.702 6.70986 10.4 6.70986 10.0327C6.70986 9.66531 7.0119 9.36326 7.37924 9.36326H8.86496V8.70204H7.37924C7.0119 8.70204 6.70986 8.4 6.70986 8.03265C6.70986 7.66531 7.0119 7.36326 7.37924 7.36326H8.18741L6.71802 5.06939C6.51394 4.75918 6.60373 4.34286 6.9221 4.13878C7.23231 3.93469 7.64863 4.02449 7.85271 4.34286L9.54251 6.97143L11.2323 4.34286C11.4364 4.03265 11.8446 3.94286 12.1629 4.13878C12.4731 4.34286 12.5629 4.75102 12.367 5.06939L10.8894 7.36326H11.6894Z" fill="#ef793c"/>
<path d="M27.9753 2.31836C21.8284 2.31836 16.8488 7.27346 16.7998 13.4122C22.4814 14.5061 26.9631 18.9877 28.0733 24.6694C34.2039 24.6204 39.1508 19.6326 39.1508 13.4939C39.1508 7.32244 34.1467 2.31836 27.9753 2.31836ZM31.9427 9.06938C31.8039 9.4204 31.412 9.59183 31.061 9.45305C30.7263 9.32244 30.3672 9.25714 30.008 9.25714C28.8651 9.25714 27.861 9.92652 27.2978 10.9388H30.1794C30.5549 10.9388 30.8569 11.2408 30.8569 11.6163C30.8569 11.9918 30.5549 12.2939 30.1794 12.2939H26.8569C26.8325 12.4571 26.8325 13.1265 26.8569 13.2898H30.1876C30.5631 13.2898 30.8651 13.5918 30.8651 13.9673C30.8651 14.3429 30.5631 14.6449 30.1876 14.6449H27.3059C27.8692 15.649 28.8733 16.3265 30.0161 16.3265C30.31 16.3265 30.6039 16.2857 30.8814 16.1959C31.2406 16.0816 31.6243 16.2857 31.7386 16.6449C31.8529 17.0041 31.6488 17.3877 31.2896 17.502C30.8733 17.6326 30.4488 17.698 30.0161 17.698C28.1223 17.698 26.4978 16.4408 25.8121 14.6612H24.6529C24.2774 14.6612 23.9753 14.3592 23.9753 13.9837C23.9753 13.6082 24.2774 13.3061 24.6529 13.3061H25.4937C25.4774 13.1429 25.4774 12.4735 25.4937 12.3102H24.6529C24.2774 12.3102 23.9753 12.0082 23.9753 11.6326C23.9753 11.2571 24.2774 10.9551 24.6529 10.9551H25.8121C26.4896 9.1755 28.1223 7.91836 30.0161 7.91836C30.5467 7.91836 31.0692 8.01632 31.559 8.21224C31.9018 8.32652 32.0733 8.71836 31.9427 9.06938Z" fill="#ef793c"/>
</g>
<defs fill="#000000">
<clipPath id="clip0_85_2" fill="#000000">
<rect width="40" height="40" fill="white"/>
</clipPath>
</defs>
</svg>