<svg xmlns="http://www.w3.org/2000/svg" width="40" height="40" viewBox="0 0 40 40" fill="none">
<path d="M21.25 0.3125H10C9.48223 0.3125 9.0625 0.732233 9.0625 1.25V4.375C9.0625 4.89277 9.48223 5.3125 10 5.3125H21.25C21.7678 5.3125 22.1875 4.89277 22.1875 4.375V1.25C22.1875 0.732233 21.7678 0.3125 21.25 0.3125Z" fill="#ffffff"/>
<path d="M13.4837 19.5485L15.625 20.2623L17.7662 19.5485C18.0457 19.4554 18.3027 19.3048 18.5206 19.1065C18.7384 18.9081 18.9124 18.6664 19.0313 18.3968C19.1502 18.1272 19.2114 17.8358 19.2109 17.5411C19.2105 17.2465 19.1484 16.9552 19.0287 16.686C18.4606 15.4139 18.2951 13.9986 18.5543 12.6298C17.5165 12.7045 16.4839 12.4253 15.625 11.8379C14.7659 12.425 13.7334 12.7041 12.6956 12.6298C12.9547 13.9983 12.7894 15.4134 12.2218 16.6854C12.1019 16.9546 12.0397 17.2459 12.0391 17.5406C12.0385 17.8353 12.0996 18.1269 12.2184 18.3965C12.3373 18.6662 12.5113 18.908 12.7292 19.1064C12.9471 19.3048 13.2041 19.4554 13.4837 19.5485Z" fill="#ffffff"/>
<path d="M27.5 2.1875H24.0625V4.375C24.0617 5.12067 23.7651 5.83556 23.2378 6.36282C22.7106 6.89009 21.9957 7.18667 21.25 7.1875H10C9.25433 7.18667 8.53944 6.89009 8.01218 6.36282C7.48491 5.83556 7.18833 5.12067 7.1875 4.375V2.1875H3.75C3.00433 2.18833 2.28944 2.48491 1.76218 3.01218C1.23491 3.53944 0.938327 4.25433 0.9375 5V36.875C0.938327 37.6207 1.23491 38.3356 1.76218 38.8628C2.28944 39.3901 3.00433 39.6867 3.75 39.6875H27.5C28.2457 39.6867 28.9606 39.3901 29.4878 38.8628C30.0151 38.3356 30.3117 37.6207 30.3125 36.875V5C30.3117 4.25433 30.0151 3.53944 29.4878 3.01218C28.9606 2.48491 28.2457 2.18833 27.5 2.1875ZM10.4113 11.6694C10.3231 11.4933 10.2925 11.294 10.324 11.0996C10.3554 10.9053 10.4473 10.7258 10.5865 10.5865C10.7258 10.4473 10.9053 10.3554 11.0996 10.324C11.294 10.2925 11.4933 10.3231 11.6694 10.4113L11.7975 10.4737C12.312 10.7317 12.8947 10.8209 13.4628 10.7287C14.0309 10.6364 14.5554 10.3675 14.9619 9.96C15.0489 9.87288 15.1523 9.80377 15.2661 9.75662C15.3799 9.70947 15.5018 9.6852 15.625 9.6852C15.7482 9.6852 15.8701 9.70947 15.9839 9.75662C16.0977 9.80377 16.2011 9.87288 16.2881 9.96C16.6947 10.3673 17.2192 10.6362 17.7873 10.7284C18.3553 10.8206 18.938 10.7315 19.4525 10.4737L19.5806 10.4113C19.7567 10.3231 19.956 10.2925 20.1504 10.324C20.3447 10.3554 20.5242 10.4473 20.6635 10.5865C20.8027 10.7258 20.8946 10.9053 20.926 11.0996C20.9575 11.294 20.9269 11.4933 20.8387 11.6694C20.5085 12.3271 20.3285 13.0499 20.3117 13.7857C20.295 14.5214 20.4419 15.2517 20.7419 15.9238C20.9678 16.4319 21.085 16.9816 21.0859 17.5378C21.0868 18.0939 20.9713 18.644 20.7469 19.1528C20.5226 19.6617 20.1943 20.1179 19.7831 20.4923C19.3719 20.8668 18.8869 21.151 18.3594 21.3269L15.9219 22.1394C15.7292 22.2037 15.5208 22.2037 15.3281 22.1394L12.8906 21.3269C12.3631 21.151 11.8783 20.8667 11.4671 20.4924C11.056 20.118 10.7277 19.6618 10.5033 19.1531C10.2788 18.6444 10.1633 18.0943 10.164 17.5383C10.1648 16.9823 10.2818 16.4325 10.5075 15.9244C10.8077 15.2523 10.9549 14.5219 10.9382 13.786C10.9216 13.0502 10.7416 12.3272 10.4113 11.6694ZM6.25 24.6875H16.875C17.1236 24.6875 17.3621 24.7863 17.5379 24.9621C17.7137 25.1379 17.8125 25.3764 17.8125 25.625C17.8125 25.8736 17.7137 26.1121 17.5379 26.2879C17.3621 26.4637 17.1236 26.5625 16.875 26.5625H6.25C6.00136 26.5625 5.7629 26.4637 5.58709 26.2879C5.41127 26.1121 5.3125 25.8736 5.3125 25.625C5.3125 25.3764 5.41127 25.1379 5.58709 24.9621C5.7629 24.7863 6.00136 24.6875 6.25 24.6875ZM25 35.3125H6.25C6.00136 35.3125 5.7629 35.2137 5.58709 35.0379C5.41127 34.8621 5.3125 34.6236 5.3125 34.375C5.3125 34.1264 5.41127 33.8879 5.58709 33.7121C5.7629 33.5363 6.00136 33.4375 6.25 33.4375H25C25.2486 33.4375 25.4871 33.5363 25.6629 33.7121C25.8387 33.8879 25.9375 34.1264 25.9375 34.375C25.9375 34.6236 25.8387 34.8621 25.6629 35.0379C25.4871 35.2137 25.2486 35.3125 25 35.3125ZM25 30.9375H6.25C6.00136 30.9375 5.7629 30.8387 5.58709 30.6629C5.41127 30.4871 5.3125 30.2486 5.3125 30C5.3125 29.7514 5.41127 29.5129 5.58709 29.3371C5.7629 29.1613 6.00136 29.0625 6.25 29.0625H25C25.2486 29.0625 25.4871 29.1613 25.6629 29.3371C25.8387 29.5129 25.9375 29.7514 25.9375 30C25.9375 30.2486 25.8387 30.4871 25.6629 30.6629C25.4871 30.8387 25.2486 30.9375 25 30.9375Z" fill="#ffffff"/>
<path d="M33.4375 13.4375H38.4375V31.5625H33.4375V13.4375Z" fill="#ffffff"/>
<path d="M35.9375 6.5625C35.2745 6.5625 34.6386 6.82589 34.1697 7.29473C33.7009 7.76357 33.4375 8.39946 33.4375 9.0625V11.5625H38.4375V9.0625C38.4375 8.39946 38.1741 7.76357 37.7053 7.29473C37.2364 6.82589 36.6005 6.5625 35.9375 6.5625Z" fill="#ffffff"/>
<path d="M35.0286 38.9775C35.0794 39.1802 35.1964 39.3601 35.3612 39.4887C35.526 39.6173 35.7289 39.6871 35.9379 39.6871C36.1469 39.6871 36.3499 39.6173 36.5147 39.4887C36.6794 39.3601 36.7965 39.1802 36.8473 38.9775L38.2323 33.4375H33.6436L35.0286 38.9775Z" fill="#ffffff"/>
</svg>