<svg xmlns="http://www.w3.org/2000/svg" width="40" height="40" viewBox="0 0 40 40" fill="none">
<g clip-path="url(#clip0_85_30)">
<path d="M17.5065 35.7433H17.4667C17.4311 35.3482 17.249 34.9806 16.9561 34.7129C16.6631 34.4453 16.2806 34.297 15.8839 34.2972H15.8432C15.8079 33.9019 15.6258 33.5341 15.3329 33.2664C15.0399 32.9986 14.6573 32.8502 14.2604 32.8504H14.219C14.1905 32.5503 14.0772 32.2645 13.8924 32.0264C13.7076 31.7882 13.4589 31.6075 13.1753 31.5053C12.8917 31.4031 12.585 31.3836 12.2907 31.4491C11.9965 31.5147 11.727 31.6625 11.5135 31.8754L10.4354 32.9527C10.1378 33.2512 9.9707 33.6555 9.9707 34.0769C9.9707 34.4984 10.1378 34.9027 10.4354 35.2012C10.5826 35.3496 10.7577 35.4674 10.9507 35.5479C11.1436 35.6283 11.3506 35.6698 11.5596 35.6699H11.5995C11.6368 36.064 11.8198 36.4299 12.1127 36.6962C12.4056 36.9625 12.7872 37.11 13.1831 37.1097H13.2237C13.2561 37.4805 13.4182 37.828 13.6815 38.091C13.8285 38.2395 14.0035 38.3574 14.1963 38.4378C14.3891 38.5183 14.596 38.5597 14.8049 38.5597H14.8448C14.8734 38.8602 14.9869 39.1463 15.1721 39.3846C15.3573 39.623 15.6065 39.8036 15.8906 39.9056C16.1746 40.0075 16.4819 40.0265 16.7763 39.9603C17.0708 39.894 17.3403 39.7454 17.5534 39.5316L18.6307 38.4543C18.8531 38.2319 19.0045 37.9486 19.0659 37.6402C19.1272 37.3318 19.0957 37.0122 18.9754 36.7216C18.8551 36.4311 18.6513 36.1828 18.3898 36.0081C18.1284 35.8334 17.821 35.7402 17.5065 35.7402V35.7433Z" fill="#ffffff"/>
<path d="M27.0244 22.302L22.2978 21.4145C21.8376 21.3287 21.3647 21.3386 20.9085 21.4436C20.4523 21.5485 20.0227 21.7463 19.6463 22.0246L15.0299 25.4504C14.8169 25.6082 14.6437 25.8134 14.524 26.0498C14.4042 26.2862 14.3412 26.5473 14.3399 26.8123C14.3386 27.0773 14.3991 27.339 14.5165 27.5765C14.634 27.8141 14.8052 28.021 15.0166 28.1809C15.415 28.4799 15.8945 28.6516 16.3921 28.6735C16.8898 28.6953 17.3825 28.5664 17.8056 28.3035L20.058 26.891C20.3205 27.4129 20.8095 28.1223 21.6595 28.5598C22.6439 29.0652 23.8416 29.0785 25.222 28.598L29.4353 31.6324C29.5137 31.6889 29.606 31.7231 29.7023 31.7313C29.7986 31.7396 29.8953 31.7216 29.9822 31.6793L32.8814 30.2598L29.3103 21.2168L27.0244 22.302Z" fill="#ffffff"/>
<path d="M39.9605 28.8447L35.5855 17.4135C35.5308 17.2709 35.4227 17.1552 35.2841 17.0912C35.1454 17.0271 34.9873 17.0197 34.8433 17.0705L33.2737 17.6307L35.5948 24.0369C35.6211 24.1093 35.6328 24.1861 35.6294 24.2631C35.6259 24.34 35.6073 24.4154 35.5746 24.4852C35.542 24.5549 35.4959 24.6175 35.4391 24.6694C35.3822 24.7213 35.3157 24.7615 35.2433 24.7877C35.1794 24.8108 35.112 24.8227 35.0441 24.8229C34.9243 24.822 34.8077 24.7845 34.7099 24.7153C34.6121 24.6462 34.5379 24.5488 34.4972 24.4361L32.1714 18.0236L30.2339 18.715C30.1599 18.7416 30.0919 18.7827 30.0341 18.836C29.9763 18.8893 29.9297 18.9537 29.8972 19.0253C29.8647 19.0969 29.8469 19.1744 29.8449 19.253C29.8429 19.3316 29.8567 19.4098 29.8855 19.483L34.4948 31.1541C34.5235 31.2273 34.5666 31.2939 34.6216 31.35C34.6766 31.4061 34.7424 31.4506 34.8149 31.4807C34.8875 31.5108 34.9654 31.526 35.0439 31.5253C35.1225 31.5246 35.2001 31.5081 35.2722 31.4768L39.6472 29.5916C39.7856 29.5315 39.8955 29.4203 39.9539 29.2811C40.0123 29.1419 40.0146 28.9856 39.9605 28.8447Z" fill="#ffffff"/>
<path d="M10.104 19.0247C10.0717 18.9527 10.0253 18.8879 9.96741 18.8342C9.90956 18.7805 9.84148 18.739 9.76724 18.7122L7.82818 18.0231L5.50474 24.4364C5.46402 24.5491 5.38978 24.6465 5.292 24.7156C5.19423 24.7848 5.07761 24.8223 4.95786 24.8231C4.88993 24.8229 4.82254 24.8111 4.75864 24.788C4.68624 24.7618 4.61971 24.7216 4.56285 24.6697C4.50599 24.6178 4.45992 24.5552 4.42727 24.4855C4.39462 24.4157 4.37603 24.3403 4.37257 24.2633C4.36911 24.1864 4.38083 24.1096 4.40708 24.0372L6.72818 17.631L5.1563 17.07C5.0121 17.0187 4.85354 17.0259 4.71455 17.09C4.57556 17.1541 4.46717 17.27 4.41255 17.413L0.0391131 28.8442C-0.0151136 28.985 -0.0128803 29.1413 0.0453467 29.2804C0.103574 29.4196 0.213296 29.5309 0.351613 29.5911L4.72661 31.4763C4.79868 31.5074 4.87627 31.5237 4.95478 31.5243C5.03328 31.5249 5.1111 31.5096 5.18361 31.4796C5.25612 31.4495 5.32184 31.4051 5.37687 31.3491C5.4319 31.2931 5.47512 31.2266 5.50396 31.1536L10.1133 19.4825C10.1424 19.4095 10.1566 19.3313 10.1549 19.2527C10.1533 19.174 10.136 19.0965 10.104 19.0247Z" fill="#ffffff"/>
<path d="M29.7488 32.9051C29.3904 32.9055 29.0411 32.7928 28.7504 32.5832L25.009 29.8879C24.4651 30.0384 23.9038 30.1172 23.3395 30.1223C22.57 30.1296 21.8101 29.9517 21.1238 29.6035C20.5869 29.3267 20.1093 28.9477 19.7176 28.4879L18.4285 29.2965C17.804 29.6858 17.0762 29.8769 16.341 29.8445C15.6058 29.8122 14.8976 29.5579 14.3098 29.1152C13.9534 28.8456 13.6647 28.4966 13.4666 28.0959C13.2685 27.6953 13.1665 27.254 13.1686 26.807C13.1707 26.3601 13.2769 25.9198 13.4788 25.521C13.6807 25.1223 13.9727 24.776 14.3316 24.5098L17.6777 22.0262L17.5473 21.9324C17.0861 21.6022 16.5559 21.3814 15.9967 21.2866C15.4375 21.1919 14.8641 21.2257 14.3199 21.3855L12.3387 21.9754L10.7621 21.0332L6.97461 30.6191L9.61758 32.109L10.6848 31.0418C11.203 30.5243 11.9055 30.2336 12.6379 30.2336C13.3703 30.2336 14.0728 30.5243 14.591 31.0418C14.8171 31.2687 15.0021 31.533 15.1379 31.823C15.4918 31.9424 15.8179 32.1321 16.0967 32.3806C16.3756 32.6291 16.6013 32.9313 16.7605 33.2691C17.1146 33.3884 17.4409 33.5779 17.7199 33.8264C17.9989 34.0749 18.2248 34.3772 18.384 34.7152C18.8302 34.8646 19.2308 35.1255 19.5479 35.4732C19.865 35.8208 20.088 36.2437 20.1959 36.7017C20.3037 37.1597 20.2927 37.6377 20.1641 38.0903C20.0354 38.5429 19.7932 38.9551 19.4605 39.2879L19.4457 39.3035L19.673 39.4738C20.0722 39.7713 20.5654 39.9146 21.0618 39.8773C21.5582 39.8399 22.0244 39.6245 22.3746 39.2707L22.441 39.2035C22.7368 38.9016 22.9331 38.5164 23.0035 38.0996C23.356 38.1991 23.7287 38.203 24.0832 38.1109C24.4377 38.0188 24.7613 37.834 25.0207 37.5754L25.0691 37.527C25.3979 37.1988 25.6056 36.7689 25.6582 36.3074C26.0134 36.4132 26.3907 36.4208 26.7499 36.3293C27.109 36.2379 27.4367 36.0507 27.698 35.7879L27.7309 35.7551C28.0494 35.436 28.2547 35.0214 28.3152 34.5746C28.6186 34.6469 28.9343 34.6493 29.2387 34.5818C29.5432 34.5142 29.8283 34.3784 30.0725 34.1846C30.3168 33.9909 30.5139 33.7441 30.6489 33.463C30.7839 33.182 30.8533 32.8739 30.852 32.5621L30.5004 32.734C30.2661 32.8474 30.0091 32.9059 29.7488 32.9051Z" fill="#ffffff"/>
<path d="M31.792 9.17969C31.792 9.25663 31.8071 9.33283 31.8366 9.40392C31.866 9.47501 31.9092 9.5396 31.9636 9.59401C32.018 9.64842 32.0826 9.69158 32.1537 9.72102C32.2248 9.75047 32.301 9.76562 32.3779 9.76562H35.6248C35.7802 9.76563 35.9292 9.70389 36.0391 9.59401C36.149 9.48412 36.2107 9.33509 36.2107 9.17969C36.2107 9.02429 36.149 8.87525 36.0391 8.76537C35.9292 8.65548 35.7802 8.59375 35.6248 8.59375H32.3779C32.2225 8.59375 32.0735 8.65548 31.9636 8.76537C31.8537 8.87525 31.792 9.02429 31.792 9.17969Z" fill="#ffffff"/>
<path d="M31.1608 6.50873C31.265 6.50954 31.3675 6.48257 31.4577 6.43061L33.8921 5.00014C34.0268 4.92151 34.1247 4.79259 34.1643 4.64176C34.204 4.49092 34.182 4.33052 34.1034 4.19584C34.0248 4.06116 33.8959 3.96323 33.745 3.9236C33.5942 3.88397 33.4338 3.90588 33.2991 3.98451L30.864 5.41733C30.7518 5.4819 30.6641 5.5818 30.6147 5.70144C30.5653 5.82108 30.5569 5.95372 30.5908 6.07864C30.6247 6.20357 30.699 6.31375 30.8021 6.39198C30.9053 6.47021 31.0314 6.51209 31.1608 6.51108V6.50873Z" fill="#ffffff"/>
<path d="M30.8643 12.9418L33.2995 14.3746C33.3662 14.4135 33.4399 14.4389 33.5164 14.4494C33.5929 14.4598 33.6707 14.4551 33.7454 14.4355C33.8201 14.4159 33.8902 14.3817 33.9517 14.335C34.0132 14.2883 34.0649 14.2299 34.1038 14.1632C34.1427 14.0966 34.1682 14.0229 34.1786 13.9463C34.1891 13.8698 34.1843 13.792 34.1647 13.7173C34.1451 13.6426 34.1109 13.5725 34.0642 13.5111C34.0175 13.4496 33.9592 13.3979 33.8925 13.3589L31.4581 11.9293C31.3917 11.8888 31.318 11.862 31.2411 11.8504C31.1643 11.8387 31.0859 11.8425 31.0105 11.8614C30.9351 11.8804 30.8643 11.9141 30.8021 11.9607C30.7399 12.0073 30.6876 12.0658 30.6482 12.1328C30.6088 12.1998 30.5831 12.2739 30.5727 12.351C30.5623 12.428 30.5672 12.5063 30.5874 12.5814C30.6075 12.6564 30.6423 12.7267 30.6899 12.7882C30.7374 12.8497 30.7967 12.9011 30.8643 12.9394V12.9418Z" fill="#ffffff"/>
<path d="M4.375 9.76562H7.62187C7.77728 9.76563 7.92631 9.70389 8.0362 9.59401C8.14608 9.48412 8.20781 9.33509 8.20781 9.17969C8.20781 9.02429 8.14608 8.87525 8.0362 8.76537C7.92631 8.65548 7.77728 8.59375 7.62187 8.59375H4.375C4.2196 8.59375 4.07056 8.65548 3.96068 8.76537C3.85079 8.87525 3.78906 9.02429 3.78906 9.17969C3.78906 9.33509 3.85079 9.48412 3.96068 9.59401C4.07056 9.70389 4.2196 9.76562 4.375 9.76562Z" fill="#ffffff"/>
<path d="M6.10795 5.00014L8.54233 6.42982C8.6087 6.47025 8.68246 6.49707 8.7593 6.50871C8.83614 6.52036 8.91453 6.5166 8.9899 6.49766C9.06528 6.47872 9.13613 6.44498 9.19834 6.39839C9.26055 6.3518 9.31286 6.29331 9.35225 6.2263C9.39163 6.1593 9.41729 6.08514 9.42773 6.00812C9.43817 5.93111 9.43319 5.85279 9.41307 5.77772C9.39295 5.70265 9.3581 5.63233 9.31055 5.57086C9.26299 5.50939 9.20369 5.458 9.13608 5.41967L6.70092 3.98451C6.63423 3.94558 6.56053 3.92016 6.48402 3.90971C6.40751 3.89926 6.32969 3.90398 6.255 3.9236C6.10417 3.96323 5.97526 4.06116 5.89662 4.19584C5.81799 4.33052 5.79608 4.49092 5.83571 4.64176C5.87534 4.79259 5.97327 4.9215 6.10795 5.00014Z" fill="#ffffff"/>
<path d="M8.54233 11.9318L6.10795 13.3591C5.97327 13.4378 5.87534 13.5667 5.83571 13.7175C5.79608 13.8684 5.81799 14.0288 5.89662 14.1634C5.97526 14.2981 6.10417 14.396 6.255 14.4357C6.40584 14.4753 6.56624 14.4534 6.70092 14.3748L9.13608 12.9443C9.20369 12.906 9.26299 12.8546 9.31055 12.7931C9.3581 12.7316 9.39295 12.6613 9.41307 12.5862C9.43319 12.5112 9.43817 12.4329 9.42773 12.3558C9.41729 12.2788 9.39163 12.2047 9.35225 12.1377C9.31286 12.0707 9.26055 12.0122 9.19834 11.9656C9.13613 11.919 9.06528 11.8852 8.9899 11.8663C8.91453 11.8474 8.83614 11.8436 8.7593 11.8552C8.68246 11.8669 8.6087 11.8937 8.54233 11.9341V11.9318Z" fill="#ffffff"/>
<path d="M20 14.8438C21.1202 14.8438 22.2153 14.5116 23.1468 13.8892C24.0782 13.2668 24.8042 12.3822 25.2329 11.3472C25.6616 10.3123 25.7738 9.17341 25.5552 8.07469C25.3367 6.97597 24.7972 5.96673 24.0051 5.17459C23.213 4.38246 22.2037 3.84301 21.105 3.62446C20.0063 3.40591 18.8674 3.51808 17.8325 3.94678C16.7975 4.37548 15.9129 5.10146 15.2905 6.03291C14.6681 6.96436 14.3359 8.05944 14.3359 9.17969C14.3376 10.6814 14.9349 12.1211 15.9967 13.183C17.0586 14.2448 18.4983 14.8421 20 14.8438ZM16.475 8.50157C16.5885 8.39549 16.7396 8.33885 16.8949 8.34413C17.0502 8.3494 17.197 8.41615 17.3031 8.52969L19.1141 10.4688L22.6969 6.63047C22.803 6.51651 22.95 6.44936 23.1056 6.44379C23.2612 6.43823 23.4126 6.4947 23.5266 6.60078C23.6405 6.70687 23.7077 6.85388 23.7132 7.00948C23.7188 7.16508 23.6623 7.31651 23.5562 7.43047L19.5453 11.7273C19.4904 11.7864 19.4239 11.8335 19.35 11.8657C19.276 11.8979 19.1963 11.9146 19.1156 11.9146C19.035 11.9146 18.9552 11.8979 18.8813 11.8657C18.8073 11.8335 18.7408 11.7864 18.6859 11.7273L16.4477 9.32891C16.3951 9.2728 16.3541 9.20689 16.3271 9.13494C16.3 9.06298 16.2874 8.9864 16.2899 8.90957C16.2924 8.83274 16.3101 8.75716 16.3419 8.68715C16.3736 8.61714 16.4189 8.55408 16.475 8.50157Z" fill="#ffffff"/>
<path d="M20 18.3594C21.8156 18.3594 23.5904 17.821 25.1 16.8123C26.6096 15.8036 27.7861 14.37 28.4809 12.6926C29.1757 11.0152 29.3575 9.16951 29.0033 7.38882C28.6491 5.60814 27.7748 3.97247 26.491 2.68867C25.2072 1.40487 23.5716 0.53059 21.7909 0.176389C20.0102 -0.177811 18.1645 0.00397742 16.4871 0.698766C14.8097 1.39356 13.376 2.57014 12.3674 4.07973C11.3587 5.58932 10.8203 7.36412 10.8203 9.17969C10.823 11.6135 11.791 13.9468 13.5119 15.6677C15.2329 17.3887 17.5662 18.3567 20 18.3594ZM20 2.34375C21.352 2.34375 22.6737 2.74467 23.7978 3.49582C24.922 4.24696 25.7982 5.31459 26.3156 6.56369C26.833 7.8128 26.9684 9.18727 26.7046 10.5133C26.4408 11.8394 25.7898 13.0574 24.8337 14.0134C23.8777 14.9695 22.6597 15.6205 21.3336 15.8843C20.0076 16.148 18.6331 16.0127 17.384 15.4953C16.1349 14.9779 15.0673 14.1017 14.3161 12.9775C13.565 11.8534 13.1641 10.5317 13.1641 9.17969C13.1661 7.36732 13.887 5.62978 15.1685 4.34824C16.4501 3.0667 18.1876 2.34582 20 2.34375Z" fill="#ffffff"/>
</g>
<defs fill="#000000">
<clipPath id="clip0_85_30" fill="#000000">
<rect width="40" height="40" fill="white"/>
</clipPath>
</defs>
</svg>