<svg xmlns="http://www.w3.org/2000/svg" width="36" height="42" viewBox="0 0 36 42" fill="none">
<path d="M4.52982 19.5259C4.1398 19.0708 4.1398 18.3358 4.52982 17.8808L12.0798 9.07251C12.9698 8.03415 14.3398 7.75417 15.4798 8.38414L21.4398 11.6509C21.8098 11.8609 22.2698 11.7675 22.5698 11.4175L30.0498 2.69087C30.4398 2.23586 31.0798 2.23586 31.4698 2.69087C31.8598 3.14582 31.8598 3.88082 31.4698 4.33584L23.9798 13.0742C23.0898 14.1125 21.7198 14.3925 20.5798 13.7625L14.6298 10.4959C14.2498 10.2858 13.7898 10.3792 13.4898 10.7175L5.9498 19.5259C5.74979 19.7591 5.49979 19.8642 5.23984 19.8642C4.97983 19.8642 4.72983 19.7591 4.52982 19.5259Z" fill="#ef793c"/>
<path d="M16.75 22.8509V37.3176C16.75 38.6126 15.85 39.6509 14.75 39.6509H12.75C11.65 39.6509 10.75 38.6126 10.75 37.3176V22.8509C10.75 21.5676 11.65 20.5176 12.75 20.5176H14.75C15.85 20.5176 16.75 21.5676 16.75 22.8509Z" fill="#ef793c"/>
<path d="M33.75 14.661V37.3177C33.75 38.6127 32.85 39.651 31.75 39.651H29.75C28.65 39.651 27.75 38.6127 27.75 37.3177V14.661C27.75 13.3777 28.65 12.3276 29.75 12.3276H31.75C32.85 12.3276 33.75 13.3777 33.75 14.661Z" fill="#ef793c"/>
<path d="M8.25 33.2811V37.3178C8.25 38.6128 7.35004 39.6511 6.25 39.6511H4.25C3.15002 39.6511 2.25 38.6128 2.25 37.3178V33.2811C2.25 31.9978 3.15002 30.9478 4.25 30.9478H6.25C7.35004 30.9478 8.25 31.9978 8.25 33.2811Z" fill="#ef793c"/>
<path d="M25.25 26.911V37.3177C25.25 38.6127 24.35 39.651 23.25 39.651H21.25C20.15 39.651 19.25 38.6127 19.25 37.3177V26.911C19.25 25.6277 20.15 24.5776 21.25 24.5776H23.25C24.35 24.5776 25.25 25.6277 25.25 26.911Z" fill="#ef793c"/>
</svg>