<svg width="40" height="40" viewBox="0 0 40 40" fill="none" xmlns="http://www.w3.org/2000/svg">
<path d="M20.0002 36.6669H4.44466C3.83355 36.6669 3.33355 36.1669 3.33355 35.5558V4.44466C3.33355 3.83355 3.83355 3.33355 4.44466 3.33355H17.778V10.0002C17.778 11.8335 19.278 13.3335 21.1113 13.3335H27.778V16.6669C27.778 17.278 28.278 17.778 28.8891 17.778C29.5002 17.778 30.0002 17.278 30.0002 16.6669V12.2224C30.0002 12.2224 29.9891 12.178 29.9891 12.1558C29.9891 12.0558 29.9669 11.9669 29.9335 11.878C29.9335 11.8558 29.9335 11.8224 29.9224 11.8002C29.9224 11.7891 29.9002 11.778 29.9002 11.7669C29.8447 11.6447 29.778 11.5335 29.678 11.4447L19.678 1.43355C19.578 1.33355 19.4669 1.26688 19.3558 1.21133C19.3447 1.21133 19.3335 1.18911 19.3224 1.18911C19.3002 1.18911 19.278 1.18911 19.2447 1.17799C19.1558 1.14466 19.0669 1.13355 18.9669 1.12244C18.9447 1.12244 18.9224 1.11133 18.9002 1.11133H4.44466C2.61133 1.11133 1.11133 2.61133 1.11133 4.44466V35.5558C1.11133 37.3891 2.61133 38.8891 4.44466 38.8891H20.0002C20.6113 38.8891 21.1113 38.3891 21.1113 37.778C21.1113 37.1669 20.6113 36.6669 20.0002 36.6669ZM26.2113 11.1113H21.1113C20.5002 11.1113 20.0002 10.6113 20.0002 10.0002V4.90022L26.2113 11.1113ZM28.8891 18.8891C23.378 18.8891 18.8891 23.378 18.8891 28.8891C18.8891 34.4002 23.378 38.8891 28.8891 38.8891C34.4002 38.8891 38.8891 34.4002 38.8891 28.8891C38.8891 23.378 34.4002 18.8891 28.8891 18.8891ZM36.578 27.778H30.0002V21.2002C33.4002 21.6891 36.0891 24.378 36.578 27.778ZM28.8891 36.6669C24.6002 36.6669 21.1113 33.178 21.1113 28.8891C21.1113 24.978 24.0113 21.7447 27.778 21.2002V28.8891C27.778 29.5002 28.278 30.0002 28.8891 30.0002H36.578C36.0335 33.7669 32.8002 36.6669 28.8891 36.6669ZM5.55577 17.778C5.55577 17.1669 6.05577 16.6669 6.66688 16.6669H17.778C18.3891 16.6669 18.8891 17.1669 18.8891 17.778C18.8891 18.3891 18.3891 18.8891 17.778 18.8891H6.66688C6.05577 18.8891 5.55577 18.3891 5.55577 17.778ZM5.55577 12.2224C5.55577 11.6113 6.05577 11.1113 6.66688 11.1113H14.4447C15.0558 11.1113 15.5558 11.6113 15.5558 12.2224C15.5558 12.8335 15.0558 13.3335 14.4447 13.3335H6.66688C6.05577 13.3335 5.55577 12.8335 5.55577 12.2224Z" fill="#120667"/>
</svg>
