<svg xmlns="http://www.w3.org/2000/svg" width="40" height="40" viewBox="0 0 40 40" fill="none">
<path d="M39.4796 10.5612L35.2032 6.01727C35.0029 5.80445 34.7636 5.66047 34.4991 5.58742C34.4759 5.58 34.4525 5.57375 34.4287 5.56914C34.3197 5.54477 34.2069 5.53125 34.0906 5.53125H22.0784C21.2211 5.53125 20.5236 6.25484 20.5236 7.14422V8.76531H20C19.8246 8.76531 19.6501 8.76977 19.4763 8.77773V7.14422C19.4763 6.25484 18.7788 5.53125 17.9215 5.53125H5.90937C5.79297 5.53125 5.68008 5.54477 5.57101 5.56914C5.5475 5.57375 5.52422 5.57992 5.50117 5.58727C5.23656 5.66031 4.99711 5.8043 4.79672 6.01719L0.520312 10.5612C0.231016 10.8685 0.078125 11.2582 0.078125 11.6881V32.8558C0.078125 33.7452 0.775625 34.4688 1.63297 34.4688H17.9216C18.7789 34.4688 19.4764 33.7452 19.4764 32.8558V31.2347H20C20.1754 31.2347 20.3499 31.2302 20.5237 31.2223V32.8558C20.5237 33.7452 21.2212 34.4688 22.0785 34.4688H38.3671C39.2244 34.4688 39.9219 33.7452 39.9219 32.8558V11.6881C39.9219 11.2582 39.7689 10.8685 39.4796 10.5612ZM37.3673 10.1406L34.9404 10.0412C34.8516 10.0375 34.7796 9.95937 34.7832 9.87055L34.8804 7.49812L37.3673 10.1406ZM20 10.0153H20.5236V11.3458H19.4763V10.0295C19.65 10.0204 19.8245 10.0153 20 10.0153ZM25.3461 16.8748C25.6313 17.3617 25.8483 17.8849 25.9906 18.4298C26.1222 18.9334 26.5777 19.2852 27.0981 19.2852H27.4041V20.7149H27.0981C26.5776 20.7149 26.1221 21.0666 25.9906 21.5702C25.8483 22.1149 25.6313 22.638 25.346 23.1252C25.0828 23.5744 25.1561 24.1452 25.5242 24.5133L25.7411 24.7302L24.7301 25.7412L24.5132 25.5244C24.1452 25.1563 23.5743 25.083 23.125 25.3462C22.638 25.6315 22.1148 25.8484 21.5701 25.9907C21.0665 26.1223 20.7148 26.5777 20.7148 27.0982V27.4043H19.2852V27.0982C19.2852 26.5777 18.9335 26.1223 18.4299 25.9907C17.8852 25.8484 17.3621 25.6315 16.875 25.3461C16.4258 25.0828 15.855 25.1561 15.4868 25.5244L15.2699 25.7412L14.259 24.7302L14.4759 24.5133C14.8439 24.1452 14.9172 23.5743 14.6541 23.1252C14.3688 22.6384 14.152 22.1152 14.0095 21.5703C13.878 21.0667 13.4225 20.715 12.902 20.715H12.5959V19.2852H12.902C13.4225 19.2852 13.8779 18.9335 14.0095 18.4299C14.1519 17.8852 14.3687 17.3621 14.6541 16.875C14.9173 16.4258 14.844 15.855 14.4759 15.4869L14.259 15.27L15.27 14.2591L15.4869 14.4759C15.8549 14.8439 16.4257 14.9173 16.875 14.6541C17.3619 14.3688 17.8851 14.1519 18.43 14.0095C18.9335 13.8778 19.2852 13.4223 19.2852 12.902V12.5959H20.715V12.902C20.715 13.4225 21.0667 13.8779 21.5703 14.0095C22.115 14.1518 22.6382 14.3688 23.1252 14.6541C23.5745 14.9173 24.1452 14.844 24.5134 14.4759L24.7302 14.2591L25.7412 15.2701L25.5245 15.4869C25.1561 15.8549 25.0829 16.4258 25.3461 16.8748ZM5.11953 7.49812L5.21672 9.87055C5.22031 9.95945 5.14836 10.0376 5.05945 10.0412L2.63258 10.1406L5.11953 7.49812ZM18.2263 32.8558C18.2263 33.0526 18.0867 33.2188 17.9215 33.2188H1.63297C1.46773 33.2188 1.32812 33.0526 1.32812 32.8558V11.6881C1.32812 11.5858 1.35492 11.5102 1.41289 11.4402C1.41594 11.4403 1.41891 11.4408 1.42187 11.4408C1.43039 11.4408 1.43898 11.4406 1.44758 11.4402L5.1107 11.2902C5.88977 11.2583 6.49758 10.5985 6.4657 9.81938L6.34117 6.78125H17.9215C18.0867 6.78125 18.2263 6.94742 18.2263 7.14422V8.90562C13.8602 9.59961 10.2401 12.8173 9.11625 17.2034C9.03055 17.5378 9.23219 17.8784 9.56656 17.964C9.61867 17.9773 9.67078 17.9837 9.72219 17.9837C10.0008 17.9837 10.2548 17.796 10.3272 17.5137C11.3089 13.6823 14.4345 10.8541 18.2264 10.1733V11.8583C18.1059 12.0395 18.0352 12.2568 18.0352 12.4904V12.8209C17.4339 12.9852 16.8555 13.2249 16.3135 13.5346L16.0794 13.3005C15.6331 12.8542 14.907 12.8541 14.4605 13.3005L13.3006 14.4604C12.8543 14.9067 12.8543 15.633 13.3006 16.0793L13.5348 16.3134C13.225 16.8556 12.9852 17.4341 12.8211 18.0351H12.4905C11.8593 18.0351 11.3458 18.5486 11.3458 19.1798V20.8201C11.3458 21.4513 11.8593 21.9648 12.4905 21.9648H12.8211C12.9854 22.566 13.2252 23.1445 13.5348 23.6864L13.3006 23.9205C12.8543 24.3669 12.8543 25.093 13.3006 25.5394L14.4605 26.6992C14.9067 27.1455 15.633 27.1457 16.0795 26.6992L16.3136 26.4651C16.8558 26.7748 17.4342 27.0146 18.0352 27.1788V27.5094C18.0352 27.743 18.1059 27.9602 18.2265 28.1415V29.9845H13.428L13.973 29.4109C14.2108 29.1607 14.2007 28.7651 13.9505 28.5273C13.7002 28.2895 13.3046 28.2997 13.0669 28.5499L11.5189 30.1791C11.2897 30.4203 11.2897 30.7989 11.5189 31.0401L13.0669 32.6692C13.1898 32.7985 13.3548 32.8637 13.5201 32.8637C13.6747 32.8637 13.8295 32.8066 13.9505 32.6917C14.2007 32.454 14.2108 32.0584 13.973 31.8081L13.428 31.2345H18.2264V32.8558H18.2263ZM20 29.9847H19.4764V28.6542H20.5237V29.9705C20.3499 29.9796 20.1755 29.9847 20 29.9847ZM38.6719 32.8558C38.6719 33.0526 38.5323 33.2188 38.367 33.2188H22.0784C21.9132 33.2188 21.7736 33.0526 21.7736 32.8558V31.0944C26.1398 30.4004 29.7598 27.1827 30.8837 22.7966C30.9694 22.4622 30.7677 22.1216 30.4334 22.036C30.0991 21.9502 29.7584 22.152 29.6728 22.4863C28.6911 26.3177 25.5655 29.1459 21.7736 29.8267V28.1418C21.8942 27.9605 21.9648 27.7432 21.9648 27.5096V27.1791C22.5659 27.0148 23.1444 26.7752 23.6866 26.4654L23.9207 26.6995C24.1366 26.9155 24.4241 27.0344 24.7301 27.0345C25.0361 27.0345 25.3236 26.9155 25.5395 26.6996L26.6994 25.5397C26.9153 25.3237 27.0342 25.0363 27.0342 24.7302C27.0342 24.4241 26.9153 24.1367 26.6994 23.9209L26.4652 23.6866C26.7748 23.1445 27.0147 22.5661 27.1789 21.965H27.5094C28.1405 21.965 28.6541 21.4515 28.6541 20.8203V19.18C28.6541 18.5488 28.1405 18.0353 27.5094 18.0353H27.1789C27.0147 17.4341 26.7749 16.8556 26.4652 16.3136L26.6993 16.0795C27.1456 15.6332 27.1456 14.907 26.6993 14.4606L25.5394 13.3007C25.0931 12.8545 24.3669 12.8544 23.9205 13.3007L23.6864 13.5348C23.1443 13.2252 22.5659 12.9853 21.9647 12.8211V12.4906C21.9647 12.257 21.8941 12.0398 21.7734 11.8584V10.0154H26.5719L26.0268 10.5891C25.7891 10.8393 25.7991 11.2349 26.0494 11.4727C26.1703 11.5876 26.3252 11.6446 26.4798 11.6446C26.6451 11.6446 26.8102 11.5795 26.933 11.4501L28.4809 9.82094C28.7102 9.57969 28.7102 9.20109 28.4809 8.95992L26.933 7.33078C26.6953 7.08062 26.2997 7.07047 26.0494 7.3082C25.7991 7.54594 25.7891 7.94156 26.0268 8.1918L26.5718 8.76539H21.7734V7.1443C21.7734 6.9475 21.913 6.78133 22.0782 6.78133H33.6586L33.5341 9.81953C33.5023 10.5986 34.1101 11.2584 34.8891 11.2902L38.5522 11.4403C38.5608 11.4406 38.5693 11.4409 38.5779 11.4409C38.5809 11.4409 38.5839 11.4404 38.5869 11.4403C38.6448 11.5103 38.6716 11.5859 38.6716 11.6882V32.8558H38.6719ZM20 15.0216C17.2549 15.0216 15.0216 17.2549 15.0216 20C15.0216 22.7451 17.2549 24.9784 20 24.9784C22.7451 24.9784 24.9784 22.7451 24.9784 20C24.9784 17.2549 22.7451 15.0216 20 15.0216ZM20 23.7284C17.9442 23.7284 16.2716 22.0558 16.2716 20C16.2716 17.9442 17.9441 16.2716 20 16.2716C22.0559 16.2716 23.7284 17.9441 23.7284 20C23.7284 22.0559 22.0558 23.7284 20 23.7284Z" fill="#ffffff"/>
</svg>