<svg width="40" height="40" viewBox="0 0 40 40" fill="none" xmlns="http://www.w3.org/2000/svg">
<g clip-path="url(#clip0_84_236)">
<path d="M6.32812 7.42188C6.32812 7.60414 6.33484 7.78633 6.34836 7.96805C2.76258 8.48969 0 11.5845 0 15.3125C0 17.0308 0.597734 18.6846 1.66969 20C0.597734 21.3154 0 22.9692 0 24.6875C0 28.4155 2.76258 31.5103 6.34836 32.032C6.33484 32.2137 6.32812 32.3959 6.32812 32.5781C6.32812 36.6705 9.65758 40 13.75 40C15.7126 40 17.4995 39.2342 18.8281 37.9859V2.01414C17.4995 0.765781 15.7126 0 13.75 0C9.65758 0 6.32812 3.32945 6.32812 7.42188Z" fill="#120667"/>
<path d="M27.0312 13.3594C27.6785 13.3594 28.2031 12.8347 28.2031 12.1875C28.2031 11.5403 27.6785 11.0156 27.0312 11.0156C26.384 11.0156 25.8594 11.5403 25.8594 12.1875C25.8594 12.8347 26.384 13.3594 27.0312 13.3594Z" fill="#120667"/>
<path d="M40 15.3125C40 11.5845 37.2374 8.48969 33.6516 7.96805C33.6652 7.78633 33.6719 7.60414 33.6719 7.42188C33.6719 3.32945 30.3424 0 26.25 0C24.2874 0 22.5005 0.765781 21.1719 2.01414V11.0156H23.7172C24.2009 9.65164 25.5035 8.67188 27.0312 8.67188C28.9698 8.67188 30.5469 10.249 30.5469 12.1875C30.5469 14.126 28.9698 15.7031 27.0312 15.7031C25.5035 15.7031 24.2009 14.7234 23.7172 13.3594H21.1719V18.8281H26.8422C27.3259 17.4641 28.6285 16.4844 30.1562 16.4844C32.0948 16.4844 33.6719 18.0615 33.6719 20C33.6719 21.9385 32.0948 23.5156 30.1562 23.5156C28.6285 23.5156 27.3259 22.5359 26.8422 21.1719H21.1719V26.6406H23.7172C24.2009 25.2766 25.5035 24.2969 27.0312 24.2969C28.9698 24.2969 30.5469 25.874 30.5469 27.8125C30.5469 29.751 28.9698 31.3281 27.0312 31.3281C25.5035 31.3281 24.2009 30.3484 23.7172 28.9844H21.1719V37.9859C22.5005 39.2342 24.2874 40 26.25 40C30.3424 40 33.6719 36.6705 33.6719 32.5781C33.6719 32.3959 33.6652 32.2137 33.6516 32.032C37.2374 31.5103 40 28.4155 40 24.6875C40 22.9692 39.4023 21.3154 38.3303 20C39.4023 18.6846 40 17.0308 40 15.3125Z" fill="#120667"/>
<path d="M27.0312 28.9844C27.6785 28.9844 28.2031 28.4597 28.2031 27.8125C28.2031 27.1653 27.6785 26.6406 27.0312 26.6406C26.384 26.6406 25.8594 27.1653 25.8594 27.8125C25.8594 28.4597 26.384 28.9844 27.0312 28.9844Z" fill="#120667"/>
<path d="M30.1562 21.1719C30.8035 21.1719 31.3281 20.6472 31.3281 20C31.3281 19.3528 30.8035 18.8281 30.1562 18.8281C29.509 18.8281 28.9844 19.3528 28.9844 20C28.9844 20.6472 29.509 21.1719 30.1562 21.1719Z" fill="#120667"/>
</g>
<defs>
<clipPath id="clip0_84_236">
<rect width="40" height="40" fill="white"/>
</clipPath>
</defs>
</svg>
