<svg width="40" height="40" viewBox="0 0 40 40" fill="none" xmlns="http://www.w3.org/2000/svg">
<path d="M36.2496 27.5H32.0371C30.8703 29.9383 29.1598 32.0764 27.0371 33.75H36.2496C36.9127 33.75 37.5485 33.4866 38.0174 33.0178C38.4862 32.5489 38.7496 31.913 38.7496 31.25V30C38.7496 29.337 38.4862 28.7011 38.0174 28.2322C37.5485 27.7634 36.9127 27.5 36.2496 27.5Z" fill="#120667"/>
<path d="M36.2502 20H33.7502C33.7469 22.1379 33.3486 24.2569 32.5752 26.25H36.2502C36.9132 26.25 37.5491 25.9866 38.018 25.5178C38.4868 25.0489 38.7502 24.413 38.7502 23.75V22.5C38.7502 21.837 38.4868 21.2011 38.018 20.7322C37.5491 20.2634 36.9132 20 36.2502 20Z" fill="#120667"/>
<path d="M36.2496 12.5H32.0371C32.9921 14.4586 33.5729 16.5782 33.7496 18.75H36.2496C36.9127 18.75 37.5485 18.4866 38.0174 18.0178C38.4862 17.5489 38.7496 16.913 38.7496 16.25V15C38.7496 14.337 38.4862 13.7011 38.0174 13.2322C37.5485 12.7634 36.9127 12.5 36.2496 12.5Z" fill="#120667"/>
<path d="M16.25 5C13.2833 5 10.3832 5.87973 7.91645 7.52796C5.44972 9.17618 3.52713 11.5189 2.39181 14.2597C1.2565 17.0006 0.959449 20.0166 1.53823 22.9264C2.11701 25.8361 3.54562 28.5088 5.64341 30.6066C7.74119 32.7044 10.4139 34.133 13.3237 34.7118C16.2334 35.2906 19.2494 34.9935 21.9903 33.8582C24.7312 32.7229 27.0738 30.8003 28.7221 28.3336C30.3703 25.8668 31.25 22.9667 31.25 20C31.25 16.0218 29.6697 12.2064 26.8566 9.3934C24.0436 6.58035 20.2283 5 16.25 5ZM21.25 16.25H15C14.6685 16.25 14.3505 16.3817 14.1161 16.6161C13.8817 16.8505 13.75 17.1685 13.75 17.5C13.75 17.8315 13.8817 18.1495 14.1161 18.3839C14.3505 18.6183 14.6685 18.75 15 18.75H17.5C18.4946 18.75 19.4484 19.1451 20.1517 19.8483C20.8549 20.5516 21.25 21.5054 21.25 22.5C21.25 23.4946 20.8549 24.4484 20.1517 25.1517C19.4484 25.8549 18.4946 26.25 17.5 26.25V28.75H15V26.25H11.25V23.75H17.5C17.8315 23.75 18.1495 23.6183 18.3839 23.3839C18.6183 23.1495 18.75 22.8315 18.75 22.5C18.75 22.1685 18.6183 21.8505 18.3839 21.6161C18.1495 21.3817 17.8315 21.25 17.5 21.25H15C14.0054 21.25 13.0516 20.8549 12.3484 20.1517C11.6451 19.4484 11.25 18.4946 11.25 17.5C11.25 16.5054 11.6451 15.5516 12.3484 14.8483C13.0516 14.1451 14.0054 13.75 15 13.75V11.25H17.5V13.75H21.25V16.25Z" fill="#120667"/>
</svg>
