<svg xmlns="http://www.w3.org/2000/svg" width="40" height="40" viewBox="0 0 40 40" fill="none">
<path d="M20 1.25C16.2916 1.25 12.6665 2.34967 9.58307 4.40994C6.49964 6.47022 4.09641 9.39857 2.67727 12.8247C1.25812 16.2508 0.886812 20.0208 1.61028 23.6579C2.33376 27.2951 4.11952 30.636 6.74176 33.2583C9.36399 35.8805 12.7049 37.6663 16.3421 38.3897C19.9792 39.1132 23.7492 38.7419 27.1753 37.3227C30.6014 35.9036 33.5298 33.5004 35.5901 30.4169C37.6503 27.3335 38.75 23.7084 38.75 20C38.744 15.029 36.7666 10.2634 33.2516 6.74844C29.7366 3.23344 24.971 1.25606 20 1.25ZM11.5625 31.875C11.4897 31.8764 11.4177 31.8593 11.3533 31.8255C11.2888 31.7916 11.2339 31.742 11.1938 31.6812C11.0188 31.4312 6.87501 25.4 6.87501 22.9437C6.87501 21.7005 7.36887 20.5083 8.24794 19.6292C9.12702 18.7501 10.3193 18.2562 11.5625 18.2562C12.8057 18.2562 13.998 18.7501 14.8771 19.6292C15.7561 20.5083 16.25 21.7005 16.25 22.9437C16.25 25.4 12.1063 31.4312 11.9313 31.6812C11.8911 31.742 11.8362 31.7916 11.7718 31.8255C11.7073 31.8593 11.6353 31.8764 11.5625 31.875ZM28.525 31.875H13.7125C13.594 31.875 13.4803 31.8279 13.3965 31.7441C13.3127 31.6603 13.2656 31.5466 13.2656 31.4281C13.2656 31.3096 13.3127 31.1959 13.3965 31.1121C13.4803 31.0283 13.594 30.9812 13.7125 30.9812H28.525C29.1728 30.9757 29.7922 30.7144 30.2483 30.2544C30.7044 29.7944 30.9603 29.1728 30.9603 28.525C30.9603 27.8772 30.7044 27.2556 30.2483 26.7956C29.7922 26.3355 29.1728 26.0743 28.525 26.0687H22.1625C17.8813 25.9187 17.8813 19.7437 22.1625 19.6H25.0375C25.156 19.6 25.2697 19.647 25.3535 19.7309C25.4373 19.8147 25.4844 19.9283 25.4844 20.0468C25.4844 20.1654 25.4373 20.279 25.3535 20.3628C25.2697 20.4466 25.156 20.4937 25.0375 20.4937H22.1625C21.545 20.4999 20.9549 20.7496 20.5204 21.1885C20.0859 21.6273 19.8422 22.2199 19.8422 22.8375C19.8422 23.455 20.0859 24.0476 20.5204 24.4865C20.9549 24.9253 21.545 25.175 22.1625 25.1812H28.525C29.4127 25.1812 30.2639 25.5338 30.8916 26.1615C31.5193 26.7892 31.8719 27.6404 31.8719 28.5281C31.8719 29.4157 31.5193 30.267 30.8916 30.8947C30.2639 31.5224 29.4127 31.875 28.525 31.875ZM27.5563 20.3C27.5151 20.3598 27.46 20.4086 27.3958 20.4424C27.3315 20.4761 27.2601 20.4938 27.1875 20.4938C27.1149 20.4938 27.0434 20.4761 26.9792 20.4424C26.915 20.4086 26.8599 20.3598 26.8187 20.3C26.6438 20.0437 22.5 14.0188 22.5 11.5625C22.5 10.3193 22.9939 9.12701 23.8729 8.24794C24.752 7.36886 25.9443 6.875 27.1875 6.875C28.4307 6.875 29.623 7.36886 30.5021 8.24794C31.3811 9.12701 31.875 10.3193 31.875 11.5625C31.875 14.0188 27.7313 20.0437 27.5563 20.3Z" fill="#ffffff"/>
<path d="M26.2125 10.3999H28.1625C28.1675 10.3997 28.1725 10.4005 28.1771 10.4023C28.1817 10.4041 28.186 10.4069 28.1895 10.4104C28.193 10.4139 28.1958 10.4182 28.1976 10.4228C28.1994 10.4275 28.2002 10.4324 28.2 10.4374C28.2004 10.4961 28.2124 10.5541 28.2352 10.6082C28.258 10.6623 28.2913 10.7113 28.3331 10.7525C28.3749 10.7937 28.4244 10.8263 28.4787 10.8483C28.5331 10.8704 28.5913 10.8816 28.65 10.8812C28.7084 10.8815 28.7662 10.8702 28.8202 10.848C28.8742 10.8258 28.9232 10.7931 28.9645 10.7519C29.0057 10.7106 29.0384 10.6616 29.0606 10.6076C29.0828 10.5536 29.0941 10.4958 29.0938 10.4374C29.094 10.315 29.07 10.1939 29.0233 10.0808C28.9766 9.96769 28.908 9.86494 28.8215 9.77842C28.735 9.6919 28.6322 9.62332 28.5191 9.57659C28.4061 9.52987 28.2849 9.50593 28.1625 9.50615H27.6313V9.21865C27.6313 9.10096 27.5845 8.98809 27.5013 8.90487C27.4181 8.82165 27.3052 8.7749 27.1875 8.7749C27.0698 8.7749 26.9569 8.82165 26.8737 8.90487C26.7905 8.98809 26.7438 9.10096 26.7438 9.21865V9.50615H26.2125C26.0901 9.50593 25.969 9.52987 25.8559 9.57659C25.7428 9.62332 25.64 9.6919 25.5535 9.77842C25.467 9.86494 25.3984 9.96769 25.3517 10.0808C25.305 10.1939 25.281 10.315 25.2813 10.4374V11.4124C25.2819 11.6592 25.3802 11.8957 25.5547 12.0702C25.7292 12.2447 25.9657 12.343 26.2125 12.3437H28.1625C28.1722 12.3443 28.1814 12.3485 28.1883 12.3554C28.1952 12.3623 28.1994 12.3714 28.2 12.3812V13.3562C28.2006 13.3669 28.197 13.3774 28.19 13.3855C28.183 13.3937 28.1732 13.3988 28.1625 13.3999H26.2125C26.2018 13.3988 26.192 13.3937 26.185 13.3855C26.178 13.3774 26.1744 13.3669 26.175 13.3562C26.1746 13.2975 26.1626 13.2394 26.1398 13.1854C26.117 13.1313 26.0837 13.0823 26.0419 13.0411C26.0001 12.9999 25.9506 12.9673 25.8963 12.9452C25.8419 12.9231 25.7837 12.912 25.725 12.9124C25.6666 12.9121 25.6088 12.9234 25.5548 12.9456C25.5009 12.9678 25.4518 13.0004 25.4106 13.0417C25.3693 13.083 25.3366 13.132 25.3144 13.186C25.2922 13.24 25.281 13.2978 25.2813 13.3562C25.281 13.4785 25.305 13.5997 25.3517 13.7128C25.3984 13.8259 25.467 13.9286 25.5535 14.0151C25.64 14.1017 25.7428 14.1702 25.8559 14.217C25.969 14.2637 26.0901 14.2876 26.2125 14.2874H26.7438V14.5749C26.7428 14.6338 26.7536 14.6922 26.7755 14.7469C26.7974 14.8016 26.8299 14.8513 26.8712 14.8933C26.9125 14.9352 26.9617 14.9686 27.016 14.9913C27.0703 15.0141 27.1286 15.0258 27.1875 15.0258C27.2464 15.0258 27.3047 15.0141 27.359 14.9913C27.4133 14.9686 27.4625 14.9352 27.5038 14.8933C27.5451 14.8513 27.5776 14.8016 27.5995 14.7469C27.6214 14.6922 27.6322 14.6338 27.6313 14.5749V14.2874H28.1625C28.2849 14.2876 28.4061 14.2637 28.5191 14.217C28.6322 14.1702 28.735 14.1017 28.8215 14.0151C28.908 13.9286 28.9766 13.8259 29.0233 13.7128C29.07 13.5997 29.094 13.4785 29.0938 13.3562V12.3812C29.0931 12.1344 28.9948 11.8978 28.8203 11.7233C28.6458 11.5488 28.4093 11.4505 28.1625 11.4499H26.2125C26.2028 11.4492 26.1936 11.4451 26.1867 11.4382C26.1798 11.4313 26.1757 11.4221 26.175 11.4124V10.4374C26.1748 10.4324 26.1756 10.4275 26.1774 10.4228C26.1792 10.4182 26.182 10.4139 26.1855 10.4104C26.189 10.4069 26.1933 10.4041 26.1979 10.4023C26.2026 10.4005 26.2075 10.3997 26.2125 10.3999Z" fill="#ffffff"/>
<path d="M10.5876 21.7812H12.5376C12.5473 21.7819 12.5564 21.7861 12.5633 21.793C12.5702 21.7999 12.5744 21.809 12.5751 21.8187C12.5748 21.8779 12.5863 21.9365 12.6088 21.9913C12.6313 22.046 12.6645 22.0957 12.7063 22.1375C12.7481 22.1793 12.7978 22.2125 12.8526 22.235C12.9073 22.2575 12.9659 22.269 13.0251 22.2688C13.0839 22.2689 13.1422 22.2573 13.1965 22.2346C13.2508 22.212 13.3 22.1787 13.3413 22.1368C13.3826 22.0949 13.4152 22.0452 13.4371 21.9906C13.459 21.936 13.4698 21.8776 13.4688 21.8187C13.4682 21.572 13.3699 21.3354 13.1954 21.1609C13.0209 20.9864 12.7844 20.8881 12.5376 20.8875H12.0063V20.6C12.0063 20.4823 11.9596 20.3694 11.8763 20.2862C11.7931 20.203 11.6802 20.1562 11.5626 20.1562C11.4449 20.1562 11.332 20.203 11.2488 20.2862C11.1656 20.3694 11.1188 20.4823 11.1188 20.6V20.8875H10.5876C10.3408 20.8881 10.1043 20.9864 9.92974 21.1609C9.75523 21.3354 9.65692 21.572 9.65631 21.8187V22.7938C9.65692 23.0405 9.75523 23.2771 9.92974 23.4516C10.1043 23.6261 10.3408 23.7244 10.5876 23.725H12.5376C12.5482 23.7261 12.5581 23.7312 12.5651 23.7394C12.572 23.7475 12.5756 23.758 12.5751 23.7687V24.7438C12.5744 24.7535 12.5702 24.7626 12.5633 24.7695C12.5565 24.7764 12.5473 24.7806 12.5376 24.7813H10.5876C10.5778 24.7806 10.5687 24.7764 10.5618 24.7695C10.5549 24.7626 10.5507 24.7535 10.5501 24.7438C10.5503 24.6846 10.5388 24.626 10.5163 24.5712C10.4938 24.5165 10.4606 24.4668 10.4188 24.425C10.377 24.3832 10.3273 24.35 10.2726 24.3275C10.2178 24.305 10.1592 24.2935 10.1001 24.2937C10.0412 24.2936 9.98295 24.3052 9.92864 24.3279C9.87434 24.3505 9.82509 24.3838 9.78378 24.4257C9.74246 24.4676 9.70991 24.5173 9.68803 24.5719C9.66614 24.6265 9.65536 24.6849 9.65631 24.7438C9.65692 24.9905 9.75523 25.2271 9.92974 25.4016C10.1043 25.5761 10.3408 25.6744 10.5876 25.675H11.1188V25.9625C11.1188 26.0802 11.1656 26.1931 11.2488 26.2763C11.332 26.3595 11.4449 26.4062 11.5626 26.4062C11.6802 26.4062 11.7931 26.3595 11.8763 26.2763C11.9596 26.1931 12.0063 26.0802 12.0063 25.9625V25.675H12.5376C12.7844 25.6744 13.0209 25.5761 13.1954 25.4016C13.3699 25.2271 13.4682 24.9905 13.4688 24.7438V23.7687C13.4682 23.522 13.3699 23.2854 13.1954 23.1109C13.0209 22.9364 12.7844 22.8381 12.5376 22.8375H10.5876C10.5769 22.8364 10.567 22.8313 10.5601 22.8231C10.5531 22.815 10.5495 22.8045 10.5501 22.7938V21.8187C10.5507 21.809 10.5549 21.7999 10.5618 21.793C10.5687 21.7861 10.5778 21.7819 10.5876 21.7812Z" fill="#ffffff"/>
</svg>