<svg xmlns="http://www.w3.org/2000/svg" width="40" height="40" viewBox="0 0 40 40" fill="none">
<path d="M19.9996 37.1431H20.2853C20.4282 37.1431 34.2853 33.8574 34.2853 18.5716V10.0002C34.2853 9.42878 33.9996 8.85735 33.4282 8.71449L20.571 3.00021C20.1424 2.85735 19.7139 2.85735 19.4282 3.00021L6.57101 8.71449C5.99958 8.85735 5.71387 9.42878 5.71387 10.0002V18.5716C5.71387 33.8574 19.571 37.1431 19.7139 37.1431H19.9996ZM17.1424 25.7145C16.7139 25.7145 16.4282 25.5716 16.1424 25.2859L11.8567 21.0002C11.2853 20.4288 11.2853 19.5716 11.8567 19.0002C12.4282 18.4288 13.2853 18.4288 13.8567 19.0002L17.1424 22.2859L26.1424 13.2859C26.7139 12.7145 27.571 12.7145 28.1424 13.2859C28.7139 13.8574 28.7139 14.7145 28.1424 15.2859L18.1424 25.2859C17.8567 25.5716 17.571 25.7145 17.1424 25.7145Z" fill="#ffffff"/>
</svg>