<svg xmlns="http://www.w3.org/2000/svg" width="40" height="40" viewBox="0 0 40 40" fill="none">
<path d="M15.4125 31.1625C15.2815 31.2166 15.1417 31.2462 15 31.25H11.25C10.9185 31.25 10.6005 31.1183 10.3661 30.8839C10.1317 30.6495 10 30.3315 10 30C10 29.6685 10.1317 29.3505 10.3661 29.1161C10.6005 28.8817 10.9185 28.75 11.25 28.75H15C15 28.5375 15 28.325 15 28.1125C14.9969 26.6128 15.2856 25.1269 15.85 23.7375H11.25C10.9185 23.7375 10.6005 23.6058 10.3661 23.3714C10.1317 23.137 10 22.819 10 22.4875C10 22.156 10.1317 21.838 10.3661 21.6036C10.6005 21.3692 10.9185 21.2375 11.25 21.2375H17.2125C18.3451 19.6464 19.8519 18.3585 21.6 17.4875H11.25C10.9185 17.4875 10.6005 17.3558 10.3661 17.1214C10.1317 16.887 10 16.569 10 16.2375C10 15.906 10.1317 15.588 10.3661 15.3536C10.6005 15.1192 10.9185 14.9875 11.25 14.9875H23.75C24.0815 14.9875 24.3995 15.1192 24.6339 15.3536C24.8683 15.588 25 15.906 25 16.2375C25.0071 16.2914 25.0071 16.3461 25 16.4C25.6202 16.3014 26.2471 16.2512 26.875 16.25C28.373 16.2513 29.8574 16.5354 31.25 17.0875V6.25C31.25 5.25544 30.8549 4.30161 30.1517 3.59835C29.4484 2.89509 28.4946 2.5 27.5 2.5H7.5C6.50544 2.5 5.55161 2.89509 4.84835 3.59835C4.14509 4.30161 3.75 5.25544 3.75 6.25V33.75C3.75 34.7446 4.14509 35.6984 4.84835 36.4017C5.55161 37.1049 6.50544 37.5 7.5 37.5H19.5875C17.5428 35.8985 16.0769 33.6733 15.4125 31.1625ZM11.25 8.75H23.75C24.0815 8.75 24.3995 8.8817 24.6339 9.11612C24.8683 9.35054 25 9.66848 25 10C25 10.3315 24.8683 10.6495 24.6339 10.8839C24.3995 11.1183 24.0815 11.25 23.75 11.25H11.25C10.9185 11.25 10.6005 11.1183 10.3661 10.8839C10.1317 10.6495 10 10.3315 10 10C10 9.66848 10.1317 9.35054 10.3661 9.11612C10.6005 8.8817 10.9185 8.75 11.25 8.75ZM26.875 18.75C25.0208 18.75 23.2082 19.2998 21.6665 20.33C20.1248 21.3601 18.9232 22.8243 18.2136 24.5373C17.5041 26.2504 17.3184 28.1354 17.6801 29.954C18.0419 31.7725 18.9348 33.443 20.2459 34.7541C21.557 36.0652 23.2275 36.9581 25.046 37.3199C26.8646 37.6816 28.7496 37.4959 30.4627 36.7864C32.1757 36.0768 33.6399 34.8752 34.67 33.3335C35.7002 31.7918 36.25 29.9792 36.25 28.125C36.25 25.6386 35.2623 23.254 33.5041 21.4959C31.746 19.7377 29.3614 18.75 26.875 18.75ZM22.5 25C22.5 24.7528 22.5733 24.5111 22.7107 24.3055C22.848 24.1 23.0432 23.9398 23.2716 23.8452C23.5001 23.7505 23.7514 23.7258 23.9939 23.774C24.2363 23.8222 24.4591 23.9413 24.6339 24.1161C24.8087 24.2909 24.9278 24.5137 24.976 24.7561C25.0242 24.9986 24.9995 25.2499 24.9048 25.4784C24.8102 25.7068 24.65 25.902 24.4445 26.0393C24.2389 26.1767 23.9972 26.25 23.75 26.25C23.4185 26.25 23.1005 26.1183 22.8661 25.8839C22.6317 25.6495 22.5 25.3315 22.5 25ZM26.075 31.8875C25.9644 32.0741 25.8071 32.2287 25.6186 32.3361C25.4301 32.4435 25.2169 32.5 25 32.5C24.7756 32.4999 24.5554 32.4395 24.3625 32.325C24.0774 32.1559 23.8712 31.8805 23.7892 31.5593C23.7071 31.2382 23.756 30.8976 23.925 30.6125L27.675 24.3625C27.747 24.2031 27.8517 24.0606 27.9823 23.9442C28.1128 23.8278 28.2664 23.7402 28.4329 23.6868C28.5995 23.6335 28.7754 23.6157 28.9493 23.6346C29.1232 23.6536 29.2911 23.7088 29.4423 23.7967C29.5936 23.8846 29.7246 24.0032 29.8271 24.145C29.9296 24.2867 30.0011 24.4484 30.0372 24.6195C30.0733 24.7907 30.073 24.9675 30.0365 25.1385C29.9999 25.3096 29.9279 25.471 29.825 25.6125L26.075 31.8875ZM30 32.5C29.7528 32.5 29.5111 32.4267 29.3055 32.2893C29.1 32.152 28.9398 31.9568 28.8452 31.7284C28.7505 31.4999 28.7258 31.2486 28.774 31.0061C28.8222 30.7637 28.9413 30.5409 29.1161 30.3661C29.2909 30.1913 29.5137 30.0722 29.7561 30.024C29.9986 29.9758 30.2499 30.0005 30.4784 30.0952C30.7068 30.1898 30.902 30.35 31.0393 30.5555C31.1767 30.7611 31.25 31.0028 31.25 31.25C31.25 31.5815 31.1183 31.8995 30.8839 32.1339C30.6495 32.3683 30.3315 32.5 30 32.5Z" fill="#ef793c"/>
</svg>