<svg width="40" height="40" viewBox="0 0 40 40" fill="none" xmlns="http://www.w3.org/2000/svg">
<path d="M18.7322 9.38637C18.7322 8.64449 18.1291 8.04199 17.3879 8.04199H17.2047C16.4635 8.04199 15.8604 8.64512 15.8604 9.38637V10.6164H18.7322V9.38637Z" fill="#120667"/>
<path d="M31.6514 34.2954H32.1745V34.8185H31.6514V34.2954Z" fill="#120667"/>
<path d="M31.6514 30.7471H32.1745V31.2702H31.6514V30.7471Z" fill="#120667"/>
<path d="M27.8203 27.1992H28.3434V27.7217H27.8203V27.1992Z" fill="#120667"/>
<path d="M31.6514 27.1992H32.1745V27.7217H31.6514V27.1992Z" fill="#120667"/>
<path d="M21.7504 37.4998H34.4141C34.556 37.4998 34.671 37.3848 34.671 37.2435V20.4579C34.671 20.316 34.556 20.2017 34.4141 20.2017H29.9066C29.901 20.2017 29.8966 20.2048 29.8916 20.2048C29.8866 20.2048 29.8816 20.2017 29.8766 20.2017H21.751C21.6091 20.2017 21.4941 20.3167 21.4941 20.4579V37.2435C21.4941 37.3854 21.6085 37.4998 21.7504 37.4998ZM29.5935 35.4435C29.5935 35.7892 29.3135 36.0685 28.9685 36.0685H27.1954C26.8504 36.0685 26.5704 35.7892 26.5704 35.4435V33.6704C26.5704 33.3248 26.8504 33.0454 27.1954 33.0454H28.9685C29.3135 33.0454 29.5935 33.3248 29.5935 33.6704V35.4435ZM29.5935 31.8948C29.5935 32.2404 29.3135 32.5198 28.9685 32.5198H27.1954C26.8504 32.5198 26.5704 32.2404 26.5704 31.8948V30.1217C26.5704 29.776 26.8504 29.4967 27.1954 29.4967H28.9685C29.3135 29.4967 29.5935 29.776 29.5935 30.1217V31.8948ZM29.5935 28.346C29.5935 28.6917 29.3135 28.971 28.9685 28.971H27.1954C26.8504 28.971 26.5704 28.6917 26.5704 28.346V26.5735C26.5704 26.2279 26.8504 25.9485 27.1954 25.9485H28.9685C29.3135 25.9485 29.5935 26.2279 29.5935 26.5735V28.346ZM33.4241 35.4429C33.4241 35.7885 33.1441 36.0679 32.7991 36.0679H31.026C30.681 36.0679 30.401 35.7885 30.401 35.4429V33.6698C30.401 33.3242 30.681 33.0448 31.026 33.0448H32.7991C33.1441 33.0448 33.4241 33.3242 33.4241 33.6698V35.4429ZM33.4241 31.8942C33.4241 32.2398 33.1441 32.5192 32.7991 32.5192H31.026C30.681 32.5192 30.401 32.2398 30.401 31.8942V30.121C30.401 29.7754 30.681 29.496 31.026 29.496H32.7991C33.1441 29.496 33.4241 29.7754 33.4241 30.121V31.8942ZM33.4241 28.3454C33.4241 28.691 33.1441 28.9704 32.7991 28.9704H31.026C30.681 28.9704 30.401 28.691 30.401 28.3454V26.5729C30.401 26.2273 30.681 25.9479 31.026 25.9479H32.7991C33.1441 25.9479 33.4241 26.2273 33.4241 26.5729V28.3454ZM22.7398 22.1742C22.7398 21.8285 23.0198 21.5492 23.3648 21.5492H32.7991C33.1441 21.5492 33.4241 21.8285 33.4241 22.1742V24.6354C33.4241 24.981 33.1441 25.2604 32.7991 25.2604H23.3648C23.0198 25.2604 22.7398 24.981 22.7398 24.6354V22.1742ZM22.7398 26.5729C22.7398 26.2273 23.0198 25.9479 23.3648 25.9479H25.1373C25.4823 25.9479 25.7623 26.2273 25.7623 26.5729V28.3454C25.7623 28.691 25.4823 28.9704 25.1373 28.9704H23.3648C23.0198 28.9704 22.7398 28.691 22.7398 28.3454V26.5729ZM22.7398 30.121C22.7398 29.7754 23.0198 29.496 23.3648 29.496H25.1373C25.4823 29.496 25.7623 29.7754 25.7623 30.121V31.8942C25.7623 32.2398 25.4823 32.5192 25.1373 32.5192H23.3648C23.0198 32.5192 22.7398 32.2398 22.7398 31.8942V30.121ZM22.7398 33.6698C22.7398 33.3242 23.0198 33.0448 23.3648 33.0448H25.1373C25.4823 33.0448 25.7623 33.3242 25.7623 33.6698V35.4429C25.7623 35.7885 25.4823 36.0679 25.1373 36.0679H23.3648C23.0198 36.0679 22.7398 35.7885 22.7398 35.4429V33.6698Z" fill="#120667"/>
<path d="M23.9902 34.2954H24.5127V34.8185H23.9902V34.2954Z" fill="#120667"/>
<path d="M27.8203 30.7471H28.3434V31.2702H27.8203V30.7471Z" fill="#120667"/>
<path d="M8.6866 21.5525H20.2435V20.4575C20.2435 19.6269 20.9197 18.9513 21.7504 18.9513H29.266V2.5H5.3291V32.4856H20.2435V27.4813H8.6866C8.3416 27.4813 8.0616 27.2019 8.0616 26.8563C8.0616 26.5106 8.3416 26.2313 8.6866 26.2313H20.2435V22.8031H8.6866C8.3416 22.8031 8.0616 22.5238 8.0616 22.1781C8.0616 21.8325 8.3416 21.5525 8.6866 21.5525ZM21.1322 7.77125C20.9366 7.4875 21.0079 7.09813 21.2916 6.90188C21.5754 6.70688 21.9647 6.7775 22.161 7.06187L23.7072 9.30438L25.2535 7.06187C25.4491 6.77812 25.8391 6.7075 26.1229 6.90188C26.4072 7.0975 26.4785 7.4875 26.2822 7.77125L24.466 10.405L26.2822 13.0387C26.4779 13.3225 26.4066 13.7119 26.1229 13.9081C26.0147 13.9825 25.891 14.0188 25.7685 14.0188C25.5697 14.0188 25.3747 13.9244 25.2535 13.7481L23.7072 11.5056L22.161 13.7481C22.0397 13.9237 21.8447 14.0188 21.646 14.0188C21.5235 14.0188 21.3997 13.9825 21.2916 13.9081C21.0072 13.7125 20.936 13.3225 21.1322 13.0387L22.9485 10.405L21.1322 7.77125ZM14.6097 9.38625C14.6097 7.95562 15.7735 6.79187 17.2041 6.79187H17.3872C18.8179 6.79187 19.9816 7.95562 19.9816 9.38625V13.3938C19.9816 13.7394 19.7016 14.0188 19.3566 14.0188C19.0116 14.0188 18.7316 13.7394 18.7316 13.3938V11.8663H15.8597V13.3938C15.8597 13.7394 15.5797 14.0188 15.2347 14.0188C14.8897 14.0188 14.6097 13.7394 14.6097 13.3938V9.38625ZM8.68535 6.79187H13.6316C13.9766 6.79187 14.2566 7.07125 14.2566 7.41687C14.2566 7.7625 13.9766 8.04187 13.6316 8.04187H11.7835V13.3938C11.7835 13.7394 11.5035 14.0188 11.1585 14.0188C10.8135 14.0188 10.5335 13.7394 10.5335 13.3938V8.04125H8.68535C8.34035 8.04125 8.06035 7.76188 8.06035 7.41625C8.06035 7.07063 8.34035 6.79187 8.68535 6.79187ZM8.06035 17.4925C8.06035 17.1469 8.34035 16.8675 8.68535 16.8675H25.7685C26.1135 16.8675 26.3935 17.1469 26.3935 17.4925C26.3935 17.8381 26.1135 18.1175 25.7685 18.1175H8.68598C8.34098 18.1175 8.06035 17.8381 8.06035 17.4925Z" fill="#120667"/>
<path d="M23.9902 22.7998H32.1746V24.0111H23.9902V22.7998Z" fill="#120667"/>
<path d="M23.9902 30.7471H24.5127V31.2702H23.9902V30.7471Z" fill="#120667"/>
<path d="M23.9902 27.1992H24.5127V27.7217H23.9902V27.1992Z" fill="#120667"/>
<path d="M27.8203 34.2954H28.3434V34.8185H27.8203V34.2954Z" fill="#120667"/>
</svg>
