<svg xmlns="http://www.w3.org/2000/svg" width="40" height="40" viewBox="0 0 40 40" fill="none">
<path d="M8.23525 9.41166H1.25879C1.3176 9.27049 1.41166 9.12932 1.52935 9.0117L9.02347 1.51759C9.12938 1.41168 9.27055 1.31754 9.41172 1.27051V8.23519C9.41172 8.88231 8.89407 9.41166 8.23525 9.41166Z" fill="#ffffff"/>
<path d="M6.17676 16.4704C6.17676 17.1175 6.70611 17.6469 7.35323 17.6469H17.5768V19.4351C17.5768 19.7528 17.6002 20.0704 17.612 20.3881H7.35323C6.70611 20.3881 6.17676 20.9175 6.17676 21.5645C6.17676 22.2233 6.70611 22.741 7.35323 22.741H17.9649C18.1885 23.6939 18.5179 24.6116 18.9179 25.494H7.35323C6.70611 25.494 6.17676 26.0116 6.17676 26.6704C6.17676 27.3175 6.70611 27.8469 7.35323 27.8469H20.3062C21.0473 28.8704 21.9296 29.788 22.9179 30.588H7.35323C6.70611 30.588 6.17676 31.1175 6.17676 31.7645C6.17676 32.4116 6.70611 32.941 7.35323 32.941H25.4944C25.8121 32.941 26.1062 32.8116 26.3179 32.6116H26.3297C27.0238 32.9175 27.7414 33.1527 28.4826 33.3292C28.7885 33.4116 29.0944 33.4468 29.3885 33.4468C29.7062 33.4468 30.0121 33.3998 30.1885 33.3528C30.2944 33.3292 30.3885 33.3057 30.4944 33.2704V35.2939C30.4944 37.2351 28.9179 38.8233 26.965 38.8233H4.70617C2.76496 38.8233 1.17676 37.2351 1.17676 35.2939V11.7645H8.23558C10.1885 11.7645 11.765 10.1881 11.765 8.23509V1.17627H26.965C28.9179 1.17627 30.4944 2.76455 30.4944 4.70568V6.74102C30.1415 6.61156 29.765 6.55275 29.3885 6.55275C28.4356 6.55275 27.5532 6.91745 26.8944 7.58805C25.7767 8.50573 25.0003 10.1057 22.9649 10.1057C22.6708 10.1057 22.365 10.0704 22.1061 9.98809C21.7768 9.89396 21.4473 9.84685 21.1062 9.84685C19.1532 9.84685 17.5768 11.4234 17.5768 13.3763V15.2939H7.35323C6.70611 15.2939 6.17676 15.8233 6.17676 16.4704Z" fill="#ffffff"/>
<path d="M37.3297 12.2469C35.3414 12.7999 33.2002 12.2352 31.7414 10.7764L30.212 9.24696C29.7532 8.78812 29.012 8.78812 28.5532 9.24696L27.0238 10.7764C25.4667 12.3167 23.3111 12.7828 21.4355 12.2469C20.6745 12.0185 19.9297 12.6095 19.9297 13.3763V19.4352C19.9297 24.9646 23.6826 29.7411 29.0473 31.0469C29.1828 31.0798 29.426 31.1212 29.6473 31.0587C35.0591 29.7763 38.8238 24.9998 38.8238 19.4352V13.3763C38.8238 12.5673 38.0626 12.027 37.3297 12.2469ZM33.0764 18.879L29.1702 22.7841C28.9404 23.0139 28.6394 23.1288 28.3384 23.1288C28.0374 23.1288 27.7364 23.0139 27.5066 22.7841L25.6821 20.9608C25.2226 20.5024 25.2226 19.7568 25.6821 19.2972C26.1417 18.8377 26.8862 18.8377 27.3457 19.2972L28.3384 20.2887L31.4128 17.2154C31.8724 16.7559 32.6169 16.7559 33.0764 17.2154C33.536 17.675 33.536 18.4195 33.0764 18.879Z" fill="#ffffff"/>
</svg>