<svg xmlns="http://www.w3.org/2000/svg" width="40" height="40" viewBox="0 0 40 40" fill="none">
<path d="M37.454 32.5906L28.8263 25.2906L32.3618 21.7551C32.5962 21.9896 32.9141 22.1213 33.2456 22.1213C33.5772 22.1213 33.8951 21.9896 34.1295 21.7551L35.8973 19.9874C36.1317 19.753 36.2634 19.435 36.2634 19.1035C36.2634 18.772 36.1317 18.4541 35.8973 18.2196L27.0584 9.38027C26.824 9.14585 26.506 9.01416 26.1745 9.01416C25.843 9.01416 25.5251 9.14585 25.2906 9.38027L23.5229 11.148C23.4068 11.2641 23.3147 11.4019 23.2519 11.5536C23.189 11.7052 23.1567 11.8678 23.1567 12.032C23.1567 12.1961 23.189 12.3587 23.2519 12.5103C23.3147 12.662 23.4068 12.7998 23.5229 12.9159L12.9164 23.5224C12.8003 23.4063 12.6625 23.3142 12.5108 23.2514C12.3592 23.1886 12.1966 23.1562 12.0324 23.1562C11.8683 23.1562 11.7057 23.1886 11.5541 23.2514C11.4024 23.3142 11.2646 23.4063 11.1485 23.5224L9.38076 25.2901C9.14634 25.5246 9.01465 25.8425 9.01465 26.174C9.01465 26.5055 9.14634 26.8235 9.38076 27.0579L18.2196 35.8968C18.4541 36.1312 18.772 36.2629 19.1035 36.2629C19.435 36.2629 19.753 36.1312 19.9874 35.8968L21.7551 34.129C21.9895 33.8946 22.1212 33.5767 22.1212 33.2451C22.1212 32.9136 21.9895 32.5957 21.7551 32.3613L25.2906 28.8258L32.5906 37.4535C32.899 37.8174 33.2795 38.1134 33.7081 38.3228C34.1366 38.5321 34.604 38.6504 35.0805 38.67C35.5571 38.6897 36.0326 38.6103 36.4769 38.4368C36.9213 38.2634 37.3248 37.9997 37.6621 37.6625C37.9994 37.3252 38.263 36.9216 38.4365 36.4773C38.6099 36.033 38.6893 35.5575 38.6696 35.0809C38.65 34.6044 38.5318 34.137 38.3224 33.7085C38.113 33.2799 37.8179 32.899 37.454 32.5906Z" fill="#ffffff"/>
<path d="M23.75 0H3.75C2.75633 0.00290201 1.80419 0.398922 1.10156 1.10156C0.398922 1.80419 0.00290201 2.75633 0 3.75L0 31.25C0.00290201 32.2437 0.398922 33.1958 1.10156 33.8984C1.80419 34.6011 2.75633 34.9971 3.75 35H13.7875L7.6125 28.825C7.26382 28.4774 6.98717 28.0644 6.79841 27.6096C6.60965 27.1549 6.51248 26.6674 6.51248 26.175C6.51248 25.6826 6.60965 25.1951 6.79841 24.7404C6.98717 24.2856 7.26382 23.8726 7.6125 23.525L8.63025 22.5H6.25C5.91848 22.5 5.60054 22.3683 5.36612 22.1339C5.1317 21.8995 5 21.5815 5 21.25C5 20.9185 5.1317 20.6005 5.36612 20.3661C5.60054 20.1317 5.91848 20 6.25 20H8.75C9.08152 20 9.39946 20.1317 9.63388 20.3661C9.8683 20.6005 10 20.9185 10 21.25L9.99913 21.2544C10.6664 20.8311 11.4482 20.6243 12.2375 20.6625L15.522 17.378C15.3591 17.4565 15.1808 17.4982 15 17.5H6.25C5.91848 17.5 5.60054 17.3683 5.36612 17.1339C5.1317 16.8995 5 16.5815 5 16.25C5 15.9185 5.1317 15.6005 5.36612 15.3661C5.60054 15.1317 5.91848 15 6.25 15H15C15.3315 15 15.6495 15.1317 15.8839 15.3661C16.1183 15.6005 16.25 15.9185 16.25 16.25C16.2482 16.4309 16.2065 16.6092 16.1279 16.7721L20.6625 12.2375C20.6361 11.7111 20.7191 11.185 20.9062 10.6923C21.0934 10.1996 21.3807 9.75105 21.75 9.375L23.525 7.6125C24.0348 7.10228 24.6808 6.74962 25.3857 6.59668C26.0905 6.44373 26.8246 6.49696 27.5 6.75V3.75C27.4971 2.75633 27.1011 1.80419 26.3984 1.10156C25.6958 0.398922 24.7437 0.00290201 23.75 0ZM18.75 12.5H6.25C5.91848 12.5 5.60054 12.3683 5.36612 12.1339C5.1317 11.8995 5 11.5815 5 11.25C5 10.9185 5.1317 10.6005 5.36612 10.3661C5.60054 10.1317 5.91848 10 6.25 10H18.75C19.0815 10 19.3995 10.1317 19.6339 10.3661C19.8683 10.6005 20 10.9185 20 11.25C20 11.5815 19.8683 11.8995 19.6339 12.1339C19.3995 12.3683 19.0815 12.5 18.75 12.5ZM21.25 7.5H6.25C5.91848 7.5 5.60054 7.3683 5.36612 7.13388C5.1317 6.89946 5 6.58152 5 6.25C5 5.91848 5.1317 5.60054 5.36612 5.36612C5.60054 5.1317 5.91848 5 6.25 5H21.25C21.5815 5 21.8995 5.1317 22.1339 5.36612C22.3683 5.60054 22.5 5.91848 22.5 6.25C22.5 6.58152 22.3683 6.89946 22.1339 7.13388C21.8995 7.3683 21.5815 7.5 21.25 7.5Z" fill="#ffffff"/>
</svg>