<svg width="40" height="40" viewBox="0 0 40 40" fill="none" xmlns="http://www.w3.org/2000/svg">
<path d="M20.0004 2.22217C16.4843 2.22217 13.0472 3.26482 10.1236 5.21826C7.2001 7.17171 4.92147 9.94822 3.57592 13.1967C2.23036 16.4451 1.8783 20.0197 2.56426 23.4682C3.25022 26.9168 4.94339 30.0845 7.42966 32.5707C9.91592 35.057 13.0836 36.7502 16.5322 37.4361C19.9807 38.1221 23.5552 37.77 26.8037 36.4245C30.0522 35.0789 32.8287 32.8003 34.7821 29.8768C36.7356 26.9532 37.7782 23.5161 37.7782 19.9999C37.7782 15.285 35.9052 10.7631 32.5712 7.42916C29.2373 4.09518 24.7154 2.22217 20.0004 2.22217ZM31.3893 22.0666C30.456 31.1888 19.1671 35.5222 12.3671 29.3111C11.1654 28.2353 10.204 26.9184 9.5454 25.4462C8.88682 23.9739 8.54591 22.3794 8.54489 20.7666C8.54489 20.5633 8.62566 20.3683 8.76944 20.2245C8.91322 20.0807 9.10822 19.9999 9.31155 19.9999C9.51489 19.9999 9.70989 20.0807 9.85367 20.2245C9.99745 20.3683 10.0782 20.5633 10.0782 20.7666C10.0782 22.7317 10.6611 24.6527 11.7531 26.2864C12.845 27.9202 14.3971 29.1934 16.2128 29.9449C18.0285 30.6964 20.0264 30.8924 21.9535 30.5083C23.8807 30.1241 25.6507 29.1769 27.0394 27.7866C28.4282 26.3963 29.3734 24.6253 29.7554 22.6977C30.1374 20.7701 29.9391 18.7725 29.1856 16.9576C28.432 15.1427 27.1571 13.5921 25.5221 12.5019C23.8871 11.4118 21.9655 10.8311 20.0004 10.8333H11.1116C11.7893 11.3222 11.6782 12.2999 10.7893 12.3666C10.5894 12.3649 10.398 12.2852 10.256 12.1444L8.76711 10.6111C8.6932 10.5386 8.63448 10.4522 8.5944 10.3568C8.55431 10.2614 8.53366 10.159 8.53366 10.0555C8.53366 9.95203 8.55431 9.84959 8.5944 9.7542C8.63448 9.6588 8.6932 9.57236 8.76711 9.49995L10.3004 7.99995C11.2449 7.24439 12.1671 8.58884 11.156 9.31106H20.0449C21.6532 9.32491 23.2407 9.67563 24.7051 10.3406C26.1695 11.0056 27.4783 11.9701 28.5472 13.1719C29.616 14.3736 30.4212 15.7861 30.9107 17.3181C31.4002 18.8501 31.5633 20.4677 31.3893 22.0666ZM21.5338 24.5888C21.5338 23.2555 21.8782 21.6222 20.0116 21.5111C19.6158 21.5306 19.2202 21.4695 18.8489 21.3315C18.4775 21.1934 18.138 20.9813 17.8512 20.708C17.5644 20.4346 17.3361 20.1058 17.1803 19.7415C17.0245 19.3772 16.9444 18.985 16.9449 18.5888V16.9444C16.9466 16.2678 17.1736 15.6111 17.5901 15.0779C18.0066 14.5447 18.5888 14.1654 19.2449 13.9999V12.3666C19.2319 12.2589 19.2418 12.1497 19.2741 12.0462C19.3064 11.9427 19.3603 11.8472 19.4322 11.766C19.5042 11.6848 19.5925 11.6198 19.6914 11.5753C19.7903 11.5308 19.8975 11.5078 20.006 11.5078C20.1145 11.5078 20.2217 11.5308 20.3206 11.5753C20.4195 11.6198 20.5078 11.6848 20.5798 11.766C20.6517 11.8472 20.7056 11.9427 20.7379 12.0462C20.7702 12.1497 20.7801 12.2589 20.7671 12.3666V13.9999C21.4232 14.1654 22.0054 14.5447 22.4219 15.0779C22.8384 15.6111 23.0654 16.2678 23.0671 16.9444V17.7111C23.0671 17.8117 23.0473 17.9114 23.0088 18.0044C22.9702 18.0975 22.9137 18.182 22.8426 18.2532C22.7714 18.3244 22.6868 18.3808 22.5938 18.4194C22.5008 18.4579 22.4011 18.4777 22.3004 18.4777C22.1998 18.4777 22.1001 18.4579 22.0071 18.4194C21.914 18.3808 21.8295 18.3244 21.7583 18.2532C21.6871 18.182 21.6307 18.0975 21.5921 18.0044C21.5536 17.9114 21.5338 17.8117 21.5338 17.7111V16.9444C21.5011 16.5617 21.326 16.2052 21.0431 15.9454C20.7602 15.6856 20.3901 15.5415 20.006 15.5415C19.6219 15.5415 19.2518 15.6856 18.9689 15.9454C18.686 16.2052 18.5109 16.5617 18.4782 16.9444V18.5888C18.4854 18.7815 18.5304 18.9708 18.6108 19.146C18.6912 19.3213 18.8054 19.4789 18.9468 19.61C19.0882 19.741 19.254 19.8429 19.4348 19.9099C19.6156 19.9768 19.8078 20.0074 20.0004 19.9999C20.3953 19.9819 20.7896 20.0442 21.1597 20.1829C21.5298 20.3217 21.8679 20.5341 22.1535 20.8072C22.4391 21.0804 22.6664 21.4087 22.8215 21.7722C22.9766 22.1357 23.0564 22.5269 23.056 22.9222V24.5666C23.0543 25.2432 22.8273 25.9 22.4108 26.4331C21.9943 26.9663 21.4121 27.3456 20.756 27.5111V29.1444C20.769 29.2521 20.7591 29.3613 20.7268 29.4648C20.6945 29.5683 20.6406 29.6639 20.5687 29.745C20.4967 29.8262 20.4084 29.8912 20.3095 29.9357C20.2106 29.9802 20.1033 30.0032 19.9949 30.0032C19.8864 30.0032 19.7792 29.9802 19.6803 29.9357C19.5814 29.8912 19.4931 29.8262 19.4211 29.745C19.3492 29.6639 19.2953 29.5683 19.263 29.4648C19.2307 29.3613 19.2207 29.2521 19.2338 29.1444V27.5333C18.5777 27.3678 17.9955 26.9886 17.579 26.4554C17.1625 25.9222 16.9355 25.2654 16.9338 24.5888V23.8222C16.9338 23.6188 17.0146 23.4238 17.1583 23.2801C17.3021 23.1363 17.4971 23.0555 17.7004 23.0555C17.9038 23.0555 18.0988 23.1363 18.2426 23.2801C18.3863 23.4238 18.4671 23.6188 18.4671 23.8222V24.5888C18.4671 24.9955 18.6287 25.3855 18.9162 25.6731C19.2038 25.9606 19.5938 26.1222 20.0004 26.1222C20.4071 26.1222 20.7971 25.9606 21.0847 25.6731C21.3722 25.3855 21.5338 24.9955 21.5338 24.5888Z" fill="#120667"/>
</svg>
