<svg width="40" height="40" viewBox="0 0 40 40" fill="none" xmlns="http://www.w3.org/2000/svg">
<g clip-path="url(#clip0_84_129)">
<path d="M19.9999 21.8182C26.0248 21.8182 30.909 16.934 30.909 10.9091C30.909 4.88417 26.0248 0 19.9999 0C13.975 0 9.09082 4.88417 9.09082 10.9091C9.09082 16.934 13.975 21.8182 19.9999 21.8182Z" fill="#120667"/>
<path d="M35.5256 27.7361C33.8068 26.8545 31.0689 25.6179 27.7948 24.7345C27.3402 24.6066 26.8608 24.8597 26.7027 25.3053L22.9765 35.7008L21.8484 30.0585L23.5902 24.833C23.6825 24.556 23.6364 24.2506 23.4642 24.0135C23.2937 23.7765 23.0203 23.6362 22.7273 23.6362H17.2728C16.9798 23.6362 16.7063 23.7765 16.5359 24.0135C16.3636 24.2505 16.3175 24.556 16.4098 24.833L18.1517 30.0585L17.0236 35.7008L13.2973 25.3053C13.1393 24.8597 12.6581 24.6075 12.2053 24.7345C8.93114 25.6179 6.19321 26.8545 4.47452 27.7361C1.7152 29.153 0 31.9495 0 35.0327V36.3636C0 38.3691 1.63176 40 3.63639 40H17.2728H22.7273H36.3637C38.3683 40 40.0001 38.3691 40.0001 36.3636V35.0327C40 31.9495 38.2848 29.153 35.5256 27.7361Z" fill="#120667"/>
</g>
<defs>
<clipPath id="clip0_84_129">
<rect width="40" height="40" fill="white"/>
</clipPath>
</defs>
</svg>
