<svg xmlns="http://www.w3.org/2000/svg" width="40" height="40" viewBox="0 0 40 40" fill="none">
<path d="M36.6663 18.3333C36.6663 20.175 35.1747 21.6667 33.333 21.6667H6.66634C4.82467 21.6667 3.33301 20.175 3.33301 18.3333C3.33301 16.4917 4.82467 15 6.66634 15H7.20301C8.02467 8.66333 13.443 3.75 19.9997 3.75C26.5563 3.75 31.9747 8.66333 32.7963 15H33.333C35.1747 15 36.6663 16.4917 36.6663 18.3333ZM33.333 24.1667C33.7663 24.1667 34.183 24.1167 34.583 24.0333V27.9333C34.583 32.5167 30.8497 36.25 26.2663 36.25C24.033 36.25 21.9497 35.3833 20.383 33.8167L19.9997 33.4333L19.6163 33.8167C18.0497 35.3833 15.9663 36.25 13.733 36.25C9.14967 36.25 5.41634 32.5167 5.41634 27.9333V24.0333C5.81634 24.1167 6.23301 24.1667 6.66634 24.1667H33.333ZM16.2497 30C16.2497 29.31 15.6897 28.75 14.9997 28.75H11.6663C10.9763 28.75 10.4163 29.31 10.4163 30C10.4163 30.69 10.9763 31.25 11.6663 31.25H14.9997C15.6897 31.25 16.2497 30.69 16.2497 30ZM29.583 30C29.583 29.31 29.023 28.75 28.333 28.75H24.9997C24.3097 28.75 23.7497 29.31 23.7497 30C23.7497 30.69 24.3097 31.25 24.9997 31.25H28.333C29.023 31.25 29.583 30.69 29.583 30Z" fill="#ffffff"/>
</svg>